<svg id="ico_cs" xmlns="http://www.w3.org/2000/svg" width="28" height="28" viewBox="0 0 28 28">
  <g id="그룹_2129" data-name="그룹 2129" transform="translate(-98 -346)">
    <path id="패스_1014" data-name="패스 1014" d="M125.228,360.748a2.691,2.691,0,0,0-3.724,0l-8.846,8.861a.664.664,0,0,0-.186.373l-.466,3.265a.66.66,0,0,0,.652.753.754.754,0,0,0,.094-.006l3.259-.467a.651.651,0,0,0,.372-.187l8.845-8.861a2.64,2.64,0,0,0,0-3.731Z" fill="#fff"/>
  </g>
  <path id="패스_1015" data-name="패스 1015" d="M123,346H99a1,1,0,0,0-1,1v3h26v-3A1,1,0,0,0,123,346Z" transform="translate(-98 -346)" fill="#fff"/>
  <path id="패스_1016" data-name="패스 1016" d="M98,352v17a1,1,0,0,0,1,1h11.449l.044-.307a2.679,2.679,0,0,1,.75-1.5l8.845-8.86A4.417,4.417,0,0,1,124,358.062V352Zm8,11h-3v-2h3Zm0-5h-3v-2h3Zm7,5h-5v-2h5Zm6-5H108v-2h11Z" transform="translate(-98 -346)" fill="#fff"/>
</svg>
