<svg xmlns="http://www.w3.org/2000/svg" width="54" height="54" viewBox="0 0 54 54">
  <g id="버튼_필터" transform="translate(-656 -532)">
    <circle id="타원" cx="27" cy="27" r="27" transform="translate(656 532)" fill="#0a0a0a"/>
    <g id="_001-foreign" data-name="001-foreign" transform="translate(671.639 546.782)">
      <g id="그룹_2234" data-name="그룹 2234" transform="translate(8.886)">
        <g id="그룹_2233" data-name="그룹 2233">
          <path id="패스_2397" data-name="패스 2397" d="M200.621,0h-8.886a1.111,1.111,0,1,0,0,2.221h6.2L186.508,13.654a1.111,1.111,0,1,0,1.571,1.571L199.511,3.792V10a1.111,1.111,0,1,0,2.221,0V1.111A1.111,1.111,0,0,0,200.621,0Z" transform="translate(-186.182)" fill="#fff"/>
        </g>
      </g>
      <g id="그룹_2236" data-name="그룹 2236" transform="translate(0 4.443)">
        <g id="그룹_2235" data-name="그룹 2235">
          <path id="패스_2398" data-name="패스 2398" d="M18.882,99.755a1.111,1.111,0,0,0-1.111,1.111v10H2.221V95.312h10a1.111,1.111,0,1,0,0-2.221H1.111A1.111,1.111,0,0,0,0,94.2v17.771a1.111,1.111,0,0,0,1.111,1.111H18.882a1.111,1.111,0,0,0,1.111-1.111V100.866A1.111,1.111,0,0,0,18.882,99.755Z" transform="translate(0 -93.091)" fill="#fff"/>
        </g>
      </g>
    </g>
  </g>
</svg>
