<svg xmlns="http://www.w3.org/2000/svg" width="24" height="24" viewBox="0 0 24 24"><path fill="none" d="M0 0h24v24H0z"/><path fill="none" stroke="#121212" stroke-linecap="round" stroke-linejoin="round" stroke-miterlimit="10" stroke-width="1.5" d="M6.441 2.741a3.311 3.311 0 0 1 .607.059 3.556 3.556 0 0 1 1.737.741 1.43 1.43 0 0 1 .5.9l.467 2.963a1.481 1.481 0 0 1-.2 1.037 3.637 3.637 0 0 1-2.5 1.637 11.163 11.163 0 0 0 6.859 6.867 3.659 3.659 0 0 1 1.645-2.504 1.481 1.481 0 0 1 1.015-.2l2.963.467a1.481 1.481 0 0 1 .9.511 3.622 3.622 0 0 1 .741 1.733 3.245 3.245 0 0 1 .081.607 3.7 3.7 0 0 1-3.326 3.7h-.756A14.815 14.815 0 0 1 2.741 6.823V6.06a3.7 3.7 0 0 1 3.7-3.319z"/></svg>