<svg id="_005-exit-top-right" data-name="005-exit-top-right" xmlns="http://www.w3.org/2000/svg" width="9.219" height="9.22" viewBox="0 0 9.219 9.22">
  <path id="패스_2422" data-name="패스 2422" d="M8.3,24.767H7.646a.244.244,0,0,0-.244.244V27.98a.286.286,0,0,1-.286.286H1.426a.286.286,0,0,1-.286-.286V22.29A.286.286,0,0,1,1.426,22H4.547a.244.244,0,0,0,.244-.244v-.651a.244.244,0,0,0-.244-.244H1.426A1.427,1.427,0,0,0,0,22.29v5.69a1.427,1.427,0,0,0,1.425,1.425h5.69A1.427,1.427,0,0,0,8.541,27.98V25.011A.244.244,0,0,0,8.3,24.767Z" transform="translate(-0.001 -20.186)" fill="#fff"/>
  <path id="패스_2423" data-name="패스 2423" d="M123.6,0h-2.59a.244.244,0,0,0-.244.244V.9a.244.244,0,0,0,.244.244h.889l-3.345,3.345a.244.244,0,0,0,0,.345l.46.46a.244.244,0,0,0,.345,0l3.345-3.345v.889a.244.244,0,0,0,.244.244h.651a.244.244,0,0,0,.244-.244V.244A.244.244,0,0,0,123.6,0Z" transform="translate(-114.629)" fill="#fff"/>
</svg>
