<svg id="ico_LNB_notice" xmlns="http://www.w3.org/2000/svg" width="20" height="20" viewBox="0 0 20 20">
  <rect id="사각형_2024" data-name="사각형 2024" width="20" height="20" fill="none"/>
  <path id="패스_951" data-name="패스 951" d="M257,148H243a1,1,0,0,0-1,1v18a1,1,0,0,0,1,1h14a1,1,0,0,0,1-1V149A1,1,0,0,0,257,148Zm-12,5a1,1,0,0,1,1-1h4a1,1,0,0,1,1,1v1a1,1,0,0,1-1,1h-4a1,1,0,0,1-1-1Zm9.5,11h-9a.5.5,0,0,1,0-1h9a.5.5,0,0,1,0,1Zm0-3h-9a.5.5,0,0,1,0-1h9a.5.5,0,0,1,0,1Zm0-3h-9a.5.5,0,0,1,0-1h9a.5.5,0,0,1,0,1Z" transform="translate(-240 -148)" fill="#fff"/>
</svg>
