<svg xmlns="http://www.w3.org/2000/svg" width="296" height="125" viewBox="0 0 296 125">
    <defs>
        <style>
            .cls-1{fill:#36c25d}
        </style>
    </defs>
    <g id="logo" transform="translate(-812 -181)">
        <g id="그룹_2131" transform="translate(897 268)">
            <g id="그룹_6">
                <path id="패스_186" d="M626.066 185.061a14.812 14.812 0 1 1 10.034-25.706 2.9 2.9 0 0 1 .085 4.181l-14.555 14.559a9.009 9.009 0 0 0 10.532-1.205 2.9 2.9 0 0 1 3.923 4.269 14.769 14.769 0 0 1-10.019 3.902zm0-23.828a9.017 9.017 0 0 0-8.3 12.529l11.818-11.817a9 9 0 0 0-3.518-.712z" transform="translate(-585.865 -147.064)"/>
                <path id="패스_187" d="M716.066 185.061a14.812 14.812 0 1 1 10.034-25.706 2.9 2.9 0 0 1 .085 4.181l-14.555 14.559a9.009 9.009 0 0 0 10.533-1.205 2.9 2.9 0 0 1 3.923 4.269 14.769 14.769 0 0 1-10.02 3.902zm0-23.828a9.017 9.017 0 0 0-8.3 12.529l11.818-11.817a9 9 0 0 0-3.518-.712z" transform="translate(-625.512 -147.064)"/>
                <path id="패스_190" d="M576.829 185.008a14.765 14.765 0 0 1-10.018-3.9 2.9 2.9 0 1 1 3.922-4.269 8.987 8.987 0 0 0 6.1 2.374 17.372 17.372 0 0 0 1.743-.1 4.21 4.21 0 0 0 3.42-1.813 3.44 3.44 0 0 0 .232-.838 2.473 2.473 0 0 0-1.12-2.17 4.823 4.823 0 0 0-1.018-.527 15.218 15.218 0 0 0-3.212-.686c-.542-.079-1.1-.159-1.672-.263a12.3 12.3 0 0 1-6.88-3.254 8.1 8.1 0 0 1-1.8-8.176 8.682 8.682 0 0 1 2.971-3.993 11.659 11.659 0 0 1 7.239-2.078 14.824 14.824 0 0 1 9.578 3.513 2.9 2.9 0 0 1-3.751 4.422 9.01 9.01 0 0 0-5.827-2.138 6.368 6.368 0 0 0-3.715.884 2.969 2.969 0 0 0-1.022 1.3 2.311 2.311 0 0 0 .524 2.265 6.593 6.593 0 0 0 3.715 1.55c.467.084.951.154 1.464.228a20.053 20.053 0 0 1 4.475 1.016 10.6 10.6 0 0 1 2.248 1.182 8.2 8.2 0 0 1 3.508 7.947 8.686 8.686 0 0 1-.829 2.552c-1.475 2.752-4.3 4.471-7.944 4.843a22.738 22.738 0 0 1-2.331.129z" transform="translate(-565.873 -147.012)"/>
                <path id="패스_200" d="M664.93 176a2.864 2.864 0 0 1-2.93-2.794v-32.412a2.933 2.933 0 0 1 5.859 0v32.412A2.864 2.864 0 0 1 664.93 176z" transform="translate(-607.813 -138)"/>
                <path id="패스_201" d="M685.93 176a2.864 2.864 0 0 1-2.93-2.794v-32.412a2.933 2.933 0 0 1 5.859 0v32.412A2.864 2.864 0 0 1 685.93 176z" transform="translate(-616.975 -138)"/>
                <path id="패스_202" d="M774.839 160a2.928 2.928 0 0 0-3.539-2.155 20.723 20.723 0 0 0-10.441 6.044v-4.959a2.93 2.93 0 0 0-5.859 0v23.438a2.93 2.93 0 1 0 5.859 0V175.8c.374-1.572 2.8-10.071 11.825-12.265a2.929 2.929 0 0 0 2.155-3.535z" transform="translate(-648.923 -147.298)"/>
            </g>
        </g>
        <g id="그룹_2132" transform="translate(812 181)">
            <path id="패스_241" d="M123.674 349.339a19.727 19.727 0 1 1 13.368-34.239 3.862 3.862 0 0 1 .113 5.568l-19.389 19.389a12 12 0 0 0 14.029-1.6 3.86 3.86 0 1 1 5.224 5.685 19.674 19.674 0 0 1-13.345 5.197zm0-31.733a12.005 12.005 0 0 0-11.057 16.685l15.738-15.739a12.013 12.013 0 0 0-4.681-.947z" class="cls-1" transform="translate(-103.947 -297.534)"/>
            <path id="패스_242" d="M406.5 349.328a19.741 19.741 0 1 1 15.436-32.052c.336.421.659.861.958 1.307a3.86 3.86 0 1 1-6.409 4.3c-.183-.271-.379-.538-.583-.794a12.021 12.021 0 1 0 0 14.989c.187-.235.366-.478.535-.725a3.86 3.86 0 1 1 6.379 4.349c-.278.407-.575.81-.883 1.195a19.653 19.653 0 0 1-15.433 7.431z" class="cls-1" transform="translate(-172.233 -297.525)"/>
            <path id="패스_243" d="M346.806 315.325a19.743 19.743 0 0 0-33.407 14.25v30.4a3.861 3.861 0 0 0 7.721 0v-14.756a19.736 19.736 0 0 0 25.686-29.894zM333.142 341.6a12.023 12.023 0 1 1 12.021-12.022 12.035 12.035 0 0 1-12.021 12.022z" class="cls-1" transform="translate(-153.846 -297.836)"/>
            <path id="패스_244" d="M374.254 349.391a3.86 3.86 0 0 1-3.861-3.86v-32.005a3.861 3.861 0 0 1 7.721 0v32.005a3.859 3.859 0 0 1-3.86 3.86z" class="cls-1" transform="translate(-166.889 -297.485)"/>
            <path id="패스_245" d="M444.115 349.391a3.859 3.859 0 0 1-3.859-3.86v-32.005a3.86 3.86 0 1 1 7.72 0v32.005a3.859 3.859 0 0 1-3.861 3.86z" class="cls-1" transform="translate(-184.076 -297.485)"/>
            <path id="패스_246" d="M480.732 354a3.842 3.842 0 0 1-2.732-1.127l-16.049-16.049a3.86 3.86 0 0 1 5.459-5.46l16.05 16.049a3.86 3.86 0 0 1-2.731 6.59z" class="cls-1" transform="translate(-188.593 -302.121)"/>
            <path id="패스_247" d="M378.891 298.65a4.939 4.939 0 1 1-4.941-4.94 4.94 4.94 0 0 1 4.941 4.94z" class="cls-1" transform="translate(-166.595 -293.71)"/>
            <path id="패스_248" d="M275.829 333.438a3.853 3.853 0 0 1-2.73-1.131l-16.05-16.05a3.86 3.86 0 0 1 5.46-5.459l16.05 16.049a3.861 3.861 0 0 1-2.731 6.59z" class="cls-1" transform="translate(-139.993 -297.385)"/>
            <path id="패스_249" d="M444.115 349.487a3.86 3.86 0 0 1-2.728-6.59l32.1-32.1a3.86 3.86 0 1 1 5.46 5.459l-32.1 32.1a3.842 3.842 0 0 1-2.732 1.131z" class="cls-1" transform="translate(-184.076 -297.487)"/>
            <path id="패스_250" d="M259.779 349.487a3.86 3.86 0 0 1-2.731-6.59l32.1-32.1a3.86 3.86 0 0 1 5.459 5.459l-32.1 32.1a3.846 3.846 0 0 1-2.728 1.131z" class="cls-1" transform="translate(-140.156 -297.487)"/>
            <path id="패스_251" d="M226.157 349.311a19.672 19.672 0 0 1-13.344-5.2 3.86 3.86 0 0 1 5.222-5.685 11.98 11.98 0 0 0 8.121 3.161 22.937 22.937 0 0 0 2.319-.137c1.574-.159 3.642-.709 4.557-2.414a4.606 4.606 0 0 0 .311-1.118 3.292 3.292 0 0 0-1.493-2.889 6.425 6.425 0 0 0-1.355-.7 20.274 20.274 0 0 0-4.277-.913c-.722-.1-1.469-.211-2.23-.349-2.61-.474-6.4-1.438-9.159-4.334a10.783 10.783 0 0 1-2.4-10.889 11.553 11.553 0 0 1 3.957-5.318c2.4-1.835 5.641-2.766 9.64-2.766a19.739 19.739 0 0 1 12.757 4.679 3.86 3.86 0 0 1-4.994 5.887 12.01 12.01 0 0 0-7.762-2.846 8.483 8.483 0 0 0-4.947 1.177 3.942 3.942 0 0 0-1.361 1.733 3.074 3.074 0 0 0 .7 3.018c.929.975 2.454 1.612 4.948 2.064.621.112 1.266.2 1.95.3a26.816 26.816 0 0 1 5.961 1.353 14.122 14.122 0 0 1 2.994 1.576 10.921 10.921 0 0 1 4.671 10.582 11.585 11.585 0 0 1-1.105 3.4c-1.964 3.666-5.722 5.956-10.581 6.451a30.278 30.278 0 0 1-3.1.177z" class="cls-1" transform="translate(-129.512 -297.505)"/>
            <path id="패스_252" d="M190.089 309.666a3.86 3.86 0 0 0-3.86 3.86v.36a19.749 19.749 0 1 0 0 31.3v.343a3.86 3.86 0 0 0 7.72 0v-32.003a3.859 3.859 0 0 0-3.86-3.86zm-15.881 31.9a12.023 12.023 0 1 1 12.021-12.022 12.035 12.035 0 0 1-12.021 12.021z" class="cls-1" transform="translate(-115.042 -297.485)"/>
        </g>
    </g>
</svg>
