<svg xmlns="http://www.w3.org/2000/svg" width="17.003" height="15.002" viewBox="0 0 17.003 15.002">
  <path id="ico_next_2" d="M11345.292,24934.705a1,1,0,0,1,0-1.414l5.294-5.293-5.294-5.289a1,1,0,0,1,0-1.414.993.993,0,0,1,1.414,0l6,6a1.023,1.023,0,0,1,.294.707,1.006,1.006,0,0,1-.294.707l-6,6a.985.985,0,0,1-.7.3A1,1,0,0,1,11345.292,24934.705Zm-8,0a.994.994,0,0,1,0-1.414l5.295-5.293-5.295-5.289a1,1,0,0,1,1.415-1.414l6,6a1.012,1.012,0,0,1,.288.707,1,1,0,0,1-.288.707l-6,6a1,1,0,0,1-.71.3A.987.987,0,0,1,11337.294,24934.705Z" transform="translate(-11336.499 -24920.5)" fill="#666" stroke="rgba(0,0,0,0)" stroke-miterlimit="10" stroke-width="1"/>
</svg>
