<svg xmlns="http://www.w3.org/2000/svg" width="12" height="11" viewBox="0 0 12 11">
  <g id="ico_answer" transform="translate(-181 -161)">
    <path id="패스_1018" data-name="패스 1018" d="M193.128,167.573l-5.34-3.759a.5.5,0,0,0-.788.409v7.518a.5.5,0,0,0,.788.409l5.34-3.759A.5.5,0,0,0,193.128,167.573Z" transform="translate(-0.34 -0.242)" fill="#36c25d"/>
    <path id="패스_1019" data-name="패스 1019" d="M189,169h-3a5.006,5.006,0,0,1-5-5v-2a1,1,0,0,1,2,0v2a3,3,0,0,0,3,3h3a1,1,0,0,1,0,2Z" fill="#36c25d"/>
  </g>
</svg>
