<?xml version="1.0"?>
<!--Icons from directory ""-->
<svg xmlns="http://www.w3.org/2000/svg" width="24" height="168" viewBox="0 0 24 168"><svg width="24" height="24" id="icon-down" y="0"><path fill="none" d="M0 0h24v24H0z"/><path d="M18 9l-6 6-6-6" fill="none" stroke="#121212" stroke-linecap="round" stroke-linejoin="round" stroke-width="1.5"/></svg><svg width="24" height="24" id="icon-left-x2" y="24"><g fill="none"><path d="M0 0h24v24H0z"/><g stroke="#121212" stroke-linecap="round" stroke-linejoin="round" stroke-width="1.5"><path d="M12 6l-6 6 6 6"/><path data-name="path" d="M18 6l-6 6 6 6"/></g></g></svg><svg width="24" height="24" id="icon-left" y="48"><path fill="none" d="M0 0h24v24H0z"/><path d="M15 6l-6 6 6 6" fill="none" stroke="#121212" stroke-linecap="round" stroke-linejoin="round" stroke-width="1.5"/></svg><svg width="24" height="24" id="icon-right-x2" y="72"><g fill="none"><path d="M0 0h24v24H0z"/><g stroke="#121212" stroke-linecap="round" stroke-linejoin="round" stroke-width="1.5"><path d="M12 6l6 6-6 6"/><path data-name="path" d="M6 6l6 6-6 6"/></g></g></svg><svg width="24" height="24" id="icon-right" y="96"><path fill="none" d="M0 0h24v24H0z"/><path d="M9 6l6 6-6 6" fill="none" stroke="#121212" stroke-linecap="round" stroke-linejoin="round" stroke-width="1.5"/></svg><svg width="24" height="24" id="icon-sort" y="120"><g fill="none"><path d="M0 0h24v24H0z"/><g stroke="#121212" stroke-linecap="round" stroke-linejoin="round" stroke-miterlimit="10" stroke-width="1.2"><path d="M14.933 4.533L12.8 6.666"/><path data-name="Path" d="M14.933 4.533l2.133 2.133M14.933 4.533v9.6M9.067 19.466l2.133-2.133M9.066 19.466l-2.133-2.133M9.066 19.466v-9.6"/></g></g></svg><svg width="24" height="24" id="icon-up" y="144"><path fill="none" d="M0 0h24v24H0z"/><path d="M18 15l-6-6-6 6" fill="none" stroke="#121212" stroke-linecap="round" stroke-linejoin="round" stroke-width="1.5"/></svg></svg>
