<svg id="_03_copyright" data-name="03 copyright" xmlns="http://www.w3.org/2000/svg" width="359" height="20" viewBox="0 0 359 20">
  <text id="_._All_Rights_Reserved." data-name=". All Rights Reserved." transform="translate(218 15)" fill="#999" font-size="14" font-family="Poppins-Regular, Poppins"><tspan x="0" y="0" fill="#000">.</tspan><tspan y="0" xml:space="preserve" fill="#999"> All Rights Reserved.</tspan></text>
  <g id="logo" transform="translate(90 1)">
    <g id="그룹_17" data-name="그룹 17" transform="translate(88.6 1.621)">
      <g id="그룹_6" data-name="그룹 6">
        <path id="패스_186" data-name="패스 186" d="M191.181,26.34a4.57,4.57,0,1,1,0-9.139,4.66,4.66,0,0,1,3.137,1.209.886.886,0,0,1,.053,1.263l-.026.026-4.552,4.492a2.845,2.845,0,0,0,3.292-.374.915.915,0,0,1,1.28.053.886.886,0,0,1-.054,1.264h0A4.651,4.651,0,0,1,191.181,26.34Zm0-7.351a2.8,2.8,0,0,0-2.818,2.783,2.756,2.756,0,0,0,.222,1.082l3.695-3.646A2.84,2.84,0,0,0,191.181,18.989Z" transform="translate(-178.6 -14.621)"/>
        <path id="패스_187" data-name="패스 187" d="M206.92,26.34a4.57,4.57,0,1,1,0-9.139,4.661,4.661,0,0,1,3.137,1.209.886.886,0,0,1,.053,1.263l-.026.026-4.552,4.492a2.845,2.845,0,0,0,3.292-.374.915.915,0,0,1,1.28.053.886.886,0,0,1-.054,1.264h0A4.651,4.651,0,0,1,206.92,26.34Zm0-7.351a2.8,2.8,0,0,0-2.817,2.783,2.756,2.756,0,0,0,.222,1.082l3.7-3.646A2.841,2.841,0,0,0,206.92,18.989Z" transform="translate(-178.6 -14.621)"/>
        <path id="패스_190" data-name="패스 190" d="M182.037,26.34a4.651,4.651,0,0,1-3.131-1.2.886.886,0,0,1-.078-1.263.915.915,0,0,1,1.279-.077l.025.023a2.825,2.825,0,0,0,1.9.732c.182,0,.364-.012.545-.031a1.321,1.321,0,0,0,1.069-.561,1.02,1.02,0,0,0,.073-.259.758.758,0,0,0-.35-.669,1.47,1.47,0,0,0-.318-.163,4.78,4.78,0,0,0-1.005-.211c-.169-.025-.344-.047-.521-.081a3.864,3.864,0,0,1-2.15-1,2.475,2.475,0,0,1-.563-2.524,2.674,2.674,0,0,1,.929-1.232,3.682,3.682,0,0,1,2.263-.641A4.67,4.67,0,0,1,185,18.259a.886.886,0,0,1,.1,1.261.915.915,0,0,1-1.278.1h0a2.835,2.835,0,0,0-1.821-.659,2.01,2.01,0,0,0-1.162.272.925.925,0,0,0-.319.4.706.706,0,0,0,.164.7,2.074,2.074,0,0,0,1.161.478c.146.025.3.047.458.07a6.326,6.326,0,0,1,1.4.314,3.293,3.293,0,0,1,.7.364,2.517,2.517,0,0,1,1.1,2.452,2.676,2.676,0,0,1-.259.787,3.042,3.042,0,0,1-2.483,1.5Q182.4,26.337,182.037,26.34Z" transform="translate(-178.6 -14.621)"/>
        <path id="패스_200" data-name="패스 200" d="M196.468,26.341a.89.89,0,0,1-.916-.862v-10a.918.918,0,0,1,1.832,0v10A.89.89,0,0,1,196.468,26.341Z" transform="translate(-178.6 -14.621)"/>
        <path id="패스_201" data-name="패스 201" d="M200.169,26.341a.888.888,0,0,1-.916-.862v-10a.917.917,0,0,1,1.831,0v10A.889.889,0,0,1,200.169,26.341Z" transform="translate(-178.6 -14.621)"/>
        <path id="패스_202" data-name="패스 202" d="M217.974,18.535a.917.917,0,0,0-1.1-.665h0a6.5,6.5,0,0,0-3.264,1.864V18.206a.916.916,0,0,0-1.831,0v7.231a.916.916,0,0,0,1.831,0h0V23.41a5.147,5.147,0,0,1,3.695-3.784.9.9,0,0,0,.675-1.09Z" transform="translate(-178.6 -14.621)"/>
      </g>
    </g>
    <g id="그룹_15" data-name="그룹 15">
      <path id="패스_241" data-name="패스 241" d="M95.429,27.117a5.36,5.36,0,1,1,0-10.719,5.469,5.469,0,0,1,3.676,1.416,1.039,1.039,0,0,1,.061,1.482l-.029.031L93.8,24.594a3.338,3.338,0,0,0,3.862-.435,1.072,1.072,0,0,1,1.5,0,1.039,1.039,0,0,1,0,1.483c-.021.021-.043.04-.065.059A5.457,5.457,0,0,1,95.429,27.117Zm0-8.622a3.283,3.283,0,0,0-3.306,3.261,3.231,3.231,0,0,0,.262,1.274l4.332-4.276A3.329,3.329,0,0,0,95.429,18.5Z" transform="translate(-90 -13)" fill="#36c25d"/>
      <path id="패스_242" data-name="패스 242" d="M154.611,27.116a5.363,5.363,0,1,1,0-10.726,5.461,5.461,0,0,1,4.247,2.018c.1.115.181.234.264.356a1.04,1.04,0,0,1-.29,1.455,1.073,1.073,0,0,1-1.475-.287h0c-.05-.073-.1-.146-.16-.216a3.34,3.34,0,0,0-4.651-.518,3.238,3.238,0,0,0-.525,4.59,3.339,3.339,0,0,0,4.651.518,3.256,3.256,0,0,0,.525-.518c.052-.064.1-.13.147-.2a1.072,1.072,0,0,1,1.477-.276,1.039,1.039,0,0,1,.279,1.457c-.076.111-.158.221-.243.325A5.437,5.437,0,0,1,154.611,27.116Z" transform="translate(-90 -13)" fill="#36c25d"/>
      <path id="패스_243" data-name="패스 243" d="M143.21,17.842a5.487,5.487,0,0,0-7.685.16,5.327,5.327,0,0,0-1.512,3.712v8.259a1.063,1.063,0,0,0,2.125,0V25.965a5.481,5.481,0,0,0,7.619-.982,5.309,5.309,0,0,0-.548-7.14Zm-3.762,7.138a3.266,3.266,0,1,1,3.309-3.267h0a3.291,3.291,0,0,1-3.309,3.266Z" transform="translate(-90 -13)" fill="#36c25d"/>
      <path id="패스_244" data-name="패스 244" d="M147.187,27.144a1.057,1.057,0,0,1-1.063-1.048h0V17.4a1.064,1.064,0,0,1,2.126,0v8.695a1.056,1.056,0,0,1-1.063,1.049Z" transform="translate(-90 -13)" fill="#36c25d"/>
      <path id="패스_245" data-name="패스 245" d="M161.732,27.144a1.055,1.055,0,0,1-1.062-1.049h0V17.4a1.063,1.063,0,0,1,2.125,0v8.7A1.056,1.056,0,0,1,161.732,27.144Z" transform="translate(-90 -13)" fill="#36c25d"/>
      <path id="패스_246" data-name="패스 246" d="M170.568,27.157a1.061,1.061,0,0,1-.751-.308l-4.419-4.36a1.039,1.039,0,0,1,0-1.483,1.072,1.072,0,0,1,1.5,0l4.418,4.361a1.037,1.037,0,0,1,0,1.482,1.066,1.066,0,0,1-.752.308Z" transform="translate(-90 -13)" fill="#36c25d"/>
      <path id="패스_247" data-name="패스 247" d="M148.544,14.342A1.36,1.36,0,1,1,147.184,13a1.351,1.351,0,0,1,1.36,1.342Z" transform="translate(-90 -13)" fill="#36c25d"/>
      <path id="패스_248" data-name="패스 248" d="M127.455,22.822a1.075,1.075,0,0,1-.752-.307l-4.418-4.361a1.039,1.039,0,0,1-.026-1.483,1.072,1.072,0,0,1,1.5-.026l.026.026,4.418,4.36a1.039,1.039,0,0,1,0,1.484,1.07,1.07,0,0,1-.75.307Z" transform="translate(-90 -13)" fill="#36c25d"/>
      <path id="패스_249" data-name="패스 249" d="M161.732,27.17a1.056,1.056,0,0,1-1.063-1.048,1.04,1.04,0,0,1,.312-.742l8.836-8.721a1.072,1.072,0,0,1,1.5,0,1.039,1.039,0,0,1,0,1.483h0l-8.837,8.721A1.062,1.062,0,0,1,161.732,27.17Z" transform="translate(-90 -13)" fill="#36c25d"/>
      <path id="패스_250" data-name="패스 250" d="M123,27.17a1.054,1.054,0,0,1-1.063-1.048,1.04,1.04,0,0,1,.311-.742l8.837-8.721a1.072,1.072,0,0,1,1.5.03,1.038,1.038,0,0,1,0,1.454l-8.836,8.721A1.065,1.065,0,0,1,123,27.17Z" transform="translate(-90 -13)" fill="#36c25d"/>
      <path id="패스_251" data-name="패스 251" d="M116.649,27.117a5.462,5.462,0,0,1-3.674-1.412,1.04,1.04,0,0,1-.012-1.483,1.073,1.073,0,0,1,1.45-.06,3.324,3.324,0,0,0,2.236.859q.319,0,.638-.038a1.548,1.548,0,0,0,1.254-.654,1.273,1.273,0,0,0,.086-.3.891.891,0,0,0-.412-.784,1.748,1.748,0,0,0-.372-.192,5.7,5.7,0,0,0-1.178-.248c-.2-.028-.4-.057-.616-.093a4.535,4.535,0,0,1-2.521-1.178,2.9,2.9,0,0,1-.66-2.959,3.148,3.148,0,0,1,1.089-1.445,4.317,4.317,0,0,1,2.653-.751,5.471,5.471,0,0,1,3.511,1.271,1.04,1.04,0,0,1,.146,1.476,1.073,1.073,0,0,1-1.5.143l-.023-.02a3.333,3.333,0,0,0-2.137-.773,2.37,2.37,0,0,0-1.362.32,1.079,1.079,0,0,0-.374.471.829.829,0,0,0,.192.82,2.444,2.444,0,0,0,1.362.561c.171.03.348.055.537.082a7.487,7.487,0,0,1,1.64.367,3.911,3.911,0,0,1,.824.429,2.95,2.95,0,0,1,1.286,2.875,3.12,3.12,0,0,1-.3.923,3.555,3.555,0,0,1-2.913,1.752A8.315,8.315,0,0,1,116.649,27.117Z" transform="translate(-90 -13)" fill="#36c25d"/>
      <path id="패스_252" data-name="패스 252" d="M110.657,16.351A1.055,1.055,0,0,0,109.6,17.4h0v.1a5.485,5.485,0,0,0-7.625.979A5.32,5.32,0,0,0,102.963,26a5.493,5.493,0,0,0,6.632,0v.093a1.063,1.063,0,0,0,2.125,0V17.4a1.056,1.056,0,0,0-1.062-1.049Zm-4.372,8.667a3.267,3.267,0,1,1,3.309-3.268v0a3.292,3.292,0,0,1-3.308,3.266Z" transform="translate(-90 -13)" fill="#36c25d"/>
    </g>
  </g>
  <text id="Copyright_" data-name="Copyright ⓒ " transform="translate(0 15)" fill="#999" font-size="14" font-family="Poppins-Regular, Poppins"><tspan x="0" y="0">Copyright </tspan><tspan y="0" font-family="SegoeUISymbol, Segoe UI Symbol">ⓒ</tspan><tspan y="0"> </tspan></text>
</svg>
