<svg id="ico_LNB_calculator" xmlns="http://www.w3.org/2000/svg" width="20" height="20" viewBox="0 0 20 20">
  <rect id="사각형_384" data-name="사각형 384" width="20" height="20" fill="#fff" opacity="0"/>
  <path id="패스_995" data-name="패스 995" d="M141,317H123a1,1,0,0,0-1,1v18a1,1,0,0,0,1,1h18a1,1,0,0,0,1-1V318A1,1,0,0,0,141,317Zm-18,1h8v9h-8Zm0,18v-8h8v8Zm18,0h-9v-8h9Zm0-9h-9v-9h9Z" transform="translate(-122 -317)" fill="#fff"/>
  <path id="패스_996" data-name="패스 996" d="M129.5,322H128v-1.5a.5.5,0,0,0-1,0V322h-1.5a.5.5,0,0,0,0,1H127v1.5a.5.5,0,0,0,1,0V323h1.5a.5.5,0,0,0,0-1Z" transform="translate(-122 -317)" fill="#fff"/>
  <path id="패스_997" data-name="패스 997" d="M134.5,323h4a.5.5,0,0,0,0-1h-4a.5.5,0,0,0,0,1Z" transform="translate(-122 -317)" fill="#fff"/>
  <path id="패스_998" data-name="패스 998" d="M134.5,331h4a.5.5,0,0,0,0-1h-4a.5.5,0,0,0,0,1Z" transform="translate(-122 -317)" fill="#fff"/>
  <path id="패스_999" data-name="패스 999" d="M138.5,333h-4a.5.5,0,0,0,0,1h4a.5.5,0,0,0,0-1Z" transform="translate(-122 -317)" fill="#fff"/>
  <path id="패스_1000" data-name="패스 1000" d="M128.854,330.146a.5.5,0,0,0-.708,0L127,331.293l-1.146-1.147a.5.5,0,1,0-.708.708L126.293,332l-1.147,1.146a.5.5,0,0,0,.708.708L127,332.707l1.146,1.147a.5.5,0,0,0,.708-.708L127.707,332l1.147-1.146A.5.5,0,0,0,128.854,330.146Z" transform="translate(-122 -317)" fill="#fff"/>
</svg>
