<svg xmlns="http://www.w3.org/2000/svg" id="icon" width="90" height="90" viewBox="0 0 90 90">
    <defs>
        <style>
            .cls-2{fill:none;stroke:#fff;stroke-linecap:round;stroke-linejoin:round;stroke-width:3px}
        </style>
    </defs>
    <path id="field" fill="none" d="M0 0H90V90H0z" opacity="0.2"/>
    <g id="icon-2" transform="translate(-3.676 -4.516)">
        <path id="패스_1070" d="M48.4 27.857a5.252 5.252 0 1 1 5.252 5.252v4.27" class="cls-2" transform="translate(-4.941 2)"/>
        <path id="패스_1072" d="M41.995 44.36L17.366 60.044a2.755 2.755 0 0 0-1.157 1.98 2.4 2.4 0 0 0 2.456 2.332h60.088a2.4 2.4 0 0 0 2.456-2.332 2.752 2.752 0 0 0-1.159-1.98l-26.164-16.7-1.329-.835a7.455 7.455 0 0 0-3.849-1.064" class="cls-2" transform="translate(0 -1.492)"/>
    </g>
</svg>
