<?xml version="1.0" encoding="utf-8"?>
<!-- Generator: Adobe Illustrator 22.1.0, SVG Export Plug-In . SVG Version: 6.00 Build 0)  -->
<svg version="1.1" id="Layer_1" xmlns="http://www.w3.org/2000/svg" xmlns:xlink="http://www.w3.org/1999/xlink" x="0px" y="0px"
	 viewBox="0 0 24 24" style="enable-background:new 0 0 24 24;" xml:space="preserve">
<style type="text/css">
	.st0{fill:#36C25D;}
	.st1{fill:#FFFFFF;}
</style>
<g id="그룹_2139" transform="translate(-338 -861)">
	<path id="check_box" class="st0" d="M344,861h12c3.3,0,6,2.7,6,6v12c0,3.3-2.7,6-6,6h-12c-3.3,0-6-2.7-6-6v-12
		C338,863.7,340.7,861,344,861z"/>
	<path id="패스_954" class="st1" d="M349,877c-0.3,0-0.5-0.1-0.7-0.3l-3-3c-0.4-0.4-0.4-1,0-1.4c0.4-0.4,1-0.4,1.4,0l2.3,2.3
		l4.3-5.3c0.4-0.4,1-0.4,1.4,0c0.4,0.4,0.4,1,0,1.4l-5,6C349.5,876.9,349.3,877,349,877z"/>
</g>
</svg>
