<svg width="46" height="21" viewBox="0 0 46 21" fill="none" xmlns="http://www.w3.org/2000/svg">
<g clip-path="url(#clip0_4691_13632)">
<path d="M3.00222 15.6651C1.34672 15.6651 0 14.2909 0 12.6016C0 10.9123 1.34672 9.53809 3.00222 9.53809C3.75871 9.53809 4.48077 9.8265 5.03656 10.3488C5.15413 10.4591 5.22301 10.6142 5.22538 10.7778C5.22895 10.9414 5.166 11.0989 5.05318 11.214L2.10322 14.2254C2.36924 14.3793 2.67563 14.4678 3.00222 14.4678C3.46182 14.4678 3.90004 14.2933 4.2385 13.977C4.4772 13.7528 4.84892 13.7698 5.06862 14.0134C5.28833 14.2569 5.27289 14.6362 5.03418 14.8604C4.47839 15.3815 3.75753 15.6675 3.00341 15.6675L3.00222 15.6651ZM3.00222 10.7378C1.99515 10.7378 1.17571 11.574 1.17571 12.6028C1.17571 12.8609 1.22678 13.1057 1.31941 13.3299L3.71477 10.8856C3.49151 10.7887 3.25043 10.739 3.00222 10.739V10.7378Z" fill="white"/>
<path d="M23.9358 9.68713C23.7066 9.45325 23.3349 9.45325 23.1045 9.68713L21.0773 11.7557L19.0501 9.68713C18.8209 9.45325 18.4492 9.45325 18.2188 9.68713C17.9896 9.92101 17.9896 10.3003 18.2188 10.5354L20.246 12.604L18.2188 14.6726C17.9896 14.9065 17.9896 15.2858 18.2188 15.5209C18.334 15.6384 18.4836 15.6966 18.6344 15.6966C18.7853 15.6966 18.9349 15.6384 19.0501 15.5209L23.9346 10.5366C24.1638 10.3027 24.1638 9.92344 23.9346 9.68834L23.9358 9.68713Z" fill="white"/>
<path d="M15.0013 15.665C14.2472 15.665 13.5263 15.3778 12.9705 14.8579C12.7318 14.6337 12.7152 14.2544 12.9349 14.0108C13.1546 13.7673 13.5263 13.7515 13.765 13.9745C14.1023 14.2908 14.5417 14.4653 15.0001 14.4653C15.0999 14.4653 15.2127 14.458 15.3528 14.4435C15.5916 14.418 15.9063 14.3332 16.0464 14.069C16.0547 14.052 16.0761 13.9951 16.0939 13.8957C16.1188 13.7527 16.0191 13.5552 15.8671 13.4473C15.8089 13.4061 15.74 13.3698 15.6604 13.3383C15.4728 13.2643 15.2483 13.2316 15.0096 13.1965C14.9004 13.1807 14.7864 13.1638 14.6712 13.142C14.2733 13.068 13.6974 12.919 13.2769 12.4694C12.8577 12.0198 12.714 11.3569 12.9124 10.7789C13.0216 10.4614 13.2294 10.1754 13.5145 9.95364C13.8791 9.66886 14.3731 9.52344 14.9823 9.52344C15.6925 9.52344 16.3825 9.78156 16.924 10.2505C17.171 10.465 17.2019 10.8431 16.9917 11.0952C16.7815 11.3472 16.411 11.3787 16.164 11.1643C15.835 10.8795 15.4158 10.7219 14.9823 10.7219C14.6474 10.7219 14.3802 10.7874 14.2294 10.9049C14.1284 10.9837 14.0548 11.0794 14.0228 11.1739C13.9705 11.3266 14.0144 11.5193 14.1284 11.6429C14.2698 11.7944 14.5025 11.8926 14.8814 11.9628C14.9764 11.9798 15.0738 11.9944 15.1783 12.0101C15.4574 12.0513 15.7744 12.0974 16.0856 12.2198C16.253 12.2852 16.4062 12.3676 16.5416 12.4645C17.0737 12.8438 17.3587 13.5043 17.253 14.1078C17.2162 14.315 17.1604 14.4919 17.0844 14.6361C16.7851 15.2057 16.2138 15.5608 15.474 15.6383C15.2923 15.6577 15.1426 15.6662 15.0025 15.6662L15.0013 15.665Z" fill="white"/>
<path d="M36.5905 15.6651C34.9338 15.6651 33.5859 14.2896 33.5859 12.5991C33.5859 10.9086 34.9338 9.5332 36.5905 9.5332C37.3696 9.5332 38.1083 9.83616 38.67 10.3863C38.765 10.4796 38.8565 10.5814 38.9396 10.6869C38.9906 10.7523 39.0393 10.8202 39.0857 10.8905C39.2662 11.1655 39.1949 11.5376 38.9253 11.7218C38.6557 11.906 38.2912 11.8333 38.1106 11.5582C38.0833 11.5158 38.0525 11.4746 38.0216 11.4346C37.9705 11.3691 37.9159 11.3073 37.8577 11.2504C37.5157 10.9159 37.0656 10.7305 36.5917 10.7305C35.5835 10.7305 34.7628 11.5679 34.7628 12.5967C34.7628 13.6255 35.5835 14.4641 36.5917 14.4641C37.1511 14.4641 37.6724 14.2084 38.0228 13.7613C38.0513 13.7249 38.0786 13.6873 38.1035 13.6486C38.2864 13.3747 38.6522 13.3044 38.9206 13.491C39.1878 13.6777 39.2579 14.0509 39.075 14.3236C39.0322 14.3866 38.9871 14.4496 38.9408 14.509C38.3672 15.2421 37.5109 15.6626 36.5929 15.6626L36.5905 15.6651Z" fill="white"/>
<path d="M32.2295 15.6802C31.9052 15.6802 31.6416 15.4111 31.6416 15.0803V10.1106C31.6416 9.77977 31.9041 9.51074 32.2295 9.51074C32.5549 9.51074 32.8173 9.77856 32.8173 10.1106V15.0803C32.8173 15.4111 32.5549 15.6802 32.2295 15.6802Z" fill="white"/>
<path d="M32.982 8.34521C32.982 8.76814 32.6459 9.1123 32.2303 9.1123C31.8146 9.1123 31.4785 8.76935 31.4785 8.34521C31.4785 7.92107 31.8146 7.57812 32.2303 7.57812C32.6459 7.57812 32.982 7.92107 32.982 8.34521Z" fill="white"/>
<path d="M45.625 9.55273C45.6986 9.58182 45.7675 9.62666 45.8281 9.68725C45.7687 9.62666 45.6986 9.58182 45.625 9.55273Z" fill="white"/>
<path d="M40.5266 16.6364C40.3212 16.6364 40.1229 16.594 39.9388 16.5152V19.0589H26.0488V15.0259C26.5559 15.4246 27.19 15.6621 27.8776 15.6621C29.5343 15.6621 30.8822 14.2867 30.8822 12.5962C30.8822 11.7528 30.5545 10.9675 29.9571 10.3834C29.3954 9.83323 28.6567 9.53027 27.8776 9.53027C26.221 9.53027 24.873 10.9057 24.873 12.5962V12.5998V19.6575C24.873 19.9883 25.1355 20.2574 25.4609 20.2574H40.5254C40.8497 20.2574 41.1133 19.9896 41.1133 19.6575V16.5152C40.9304 16.594 40.7309 16.6364 40.5254 16.6364H40.5266ZM27.8788 10.73C28.3527 10.73 28.8028 10.9142 29.1448 11.2486C29.5082 11.6037 29.7077 12.0824 29.7077 12.5962C29.7077 13.625 28.8871 14.4624 27.8776 14.4624C26.8682 14.4624 26.0488 13.625 26.0488 12.5962C26.0488 11.5674 26.8694 10.7288 27.8776 10.7288L27.8788 10.73Z" fill="white"/>
<path d="M43.8006 12.6039L45.8278 10.5353C46.057 10.3014 46.057 9.92214 45.8278 9.68704C45.5986 9.45316 45.2269 9.45316 44.9965 9.68704L41.1143 13.6485V4.75248C41.1143 4.42165 40.8518 4.15263 40.5264 4.15263H36.5587V3.91996C36.5587 1.90105 34.9495 0.257812 32.971 0.257812C30.9925 0.257812 29.3833 1.90105 29.3833 3.91996V4.15263H25.4619C25.1377 4.15263 24.874 4.42044 24.874 4.75248V9.68704C25.2101 9.32592 25.6068 9.02539 26.0485 8.80241V5.35234H29.3821V6.63081C29.3821 6.96164 29.6457 7.23067 29.97 7.23067C30.2942 7.23067 30.5578 6.96285 30.5578 6.63081V5.35234H35.383V6.63081C35.383 6.96164 35.6454 7.23067 35.9708 7.23067C36.2962 7.23067 36.5587 6.96285 36.5587 6.63081V5.35234H39.9398V15.0809C39.9398 15.0809 39.9398 15.0857 39.9398 15.0882C39.9374 15.2445 39.9944 15.4008 40.112 15.5196C40.2272 15.6371 40.3768 15.6953 40.5276 15.6953C40.6784 15.6953 40.8281 15.6371 40.9433 15.5196L42.9705 13.451L44.9977 15.5196C45.1129 15.6359 45.2625 15.6953 45.4133 15.6953C45.5642 15.6953 45.7138 15.6371 45.829 15.5196C46.0582 15.2857 46.0582 14.9064 45.829 14.6713L43.8018 12.6027L43.8006 12.6039ZM35.3842 4.15384H30.559V3.92117C30.559 2.56271 31.6421 1.45752 32.9722 1.45752C34.3023 1.45752 35.3854 2.56271 35.3854 3.92117V4.15384H35.3842Z" fill="white"/>
<path d="M45.6243 9.55194C45.4319 9.4756 45.2075 9.50589 45.04 9.64526C45.1481 9.55558 45.2787 9.51074 45.4106 9.51074C45.483 9.51074 45.5555 9.52407 45.6231 9.55194H45.6243Z" fill="white"/>
<path d="M11.4206 9.51074C11.0964 9.51074 10.8327 9.77856 10.8327 10.1106V10.1663C10.3102 9.75553 9.67125 9.53256 9.00264 9.53256C7.34596 9.53256 5.99805 10.908 5.99805 12.5985C5.99805 14.289 7.34596 15.6644 9.00264 15.6644C9.69144 15.6644 10.3244 15.4269 10.8327 15.0282V15.0815C10.8327 15.4123 11.0952 15.6814 11.4206 15.6814C11.746 15.6814 12.0084 15.4123 12.0084 15.0815V10.1118C12.0084 9.78098 11.7448 9.51195 11.4206 9.51195V9.51074ZM9.00383 14.4647C7.99557 14.4647 7.17495 13.6273 7.17495 12.5973C7.17495 11.5672 7.99557 10.7311 9.00383 10.7311C9.47886 10.7311 9.92777 10.9153 10.2698 11.2497C10.6332 11.6048 10.8327 12.0835 10.8327 12.5973C10.8327 13.6261 10.0121 14.4647 9.00264 14.4647H9.00383Z" fill="white"/>
</g>
<defs>
<clipPath id="clip0_4691_13632">
<rect width="46" height="20" fill="white" transform="translate(0 0.258789)"/>
</clipPath>
</defs>
</svg>
