<svg width="15" height="15" viewBox="0 0 15 15" fill="none" xmlns="http://www.w3.org/2000/svg">
<circle cx="7.5" cy="7.5" r="7.5" fill="#198CFF"/>
<path d="M5.65719 10.8426C5.61018 10.7961 5.57285 10.7407 5.54738 10.6797C5.52191 10.6187 5.50879 10.5532 5.50879 10.4871C5.50879 10.4209 5.52191 10.3555 5.54738 10.2945C5.57285 10.2334 5.61018 10.1781 5.65719 10.1316L8.28919 7.49957L5.65719 4.86657C5.56304 4.77242 5.51015 4.64472 5.51015 4.51157C5.51015 4.37842 5.56304 4.25072 5.65719 4.15657C5.75134 4.06242 5.87904 4.00952 6.01219 4.00952C6.14534 4.00952 6.27304 4.06242 6.36719 4.15657L9.34319 7.13257C9.43753 7.23167 9.49015 7.36325 9.49015 7.50007C9.49015 7.63689 9.43753 7.76847 9.34319 7.86757L6.36719 10.8426C6.32071 10.8894 6.26541 10.9266 6.20448 10.952C6.14355 10.9774 6.0782 10.9905 6.01219 10.9905C5.94619 10.9905 5.88083 10.9774 5.8199 10.952C5.75898 10.9266 5.70367 10.8894 5.65719 10.8426Z" fill="white"/>
</svg>
