<svg xmlns="http://www.w3.org/2000/svg" width="60" height="60" viewBox="0 0 60 60">
  <g id="그룹_2154" data-name="그룹 2154" transform="translate(-851 -314)">
    <circle id="타원_50" data-name="타원 50" cx="30" cy="30" r="30" transform="translate(851 314)" fill="#efefef"/>
    <g id="ico" transform="translate(741 212)">
      <rect id="AREA_24x24" data-name="AREA 24x24" width="24" height="24" transform="translate(128 120)" fill="none" opacity="0.2"/>
      <path id="패스_1024" data-name="패스 1024" d="M145,143a1,1,0,0,1-.707-.293l-4-4a1,1,0,0,1,1.414-1.414L145,140.586l5.293-6.293a1,1,0,0,1,1.414,1.414l-6,7A1,1,0,0,1,145,143Z" fill="#999"/>
      <path id="패스_1025" data-name="패스 1025" d="M145.284,134.694a.993.993,0,1,0,1.348-1.452h0a11.013,11.013,0,0,0-2.875-1.568,6,6,0,1,0-7.518,0A10.993,10.993,0,0,0,129,142a1,1,0,0,0,2,0,8.983,8.983,0,0,1,14.264-7.284ZM140,131a4,4,0,1,1,4-4A4,4,0,0,1,140,131Z" fill="#999"/>
    </g>
  </g>
</svg>
