<svg xmlns="http://www.w3.org/2000/svg" width="82" height="123" viewBox="0 0 82 123">
  <g id="일러스트" transform="translate(-477 -237)">
    <path id="사각형_244" data-name="사각형 244" d="M552.876,253.65V354.6a4.47,4.47,0,0,1-4.537,4.4H487.658a4.47,4.47,0,0,1-4.537-4.4V253.65h69.755Z" fill="#fff" stroke="#36c25d" stroke-linecap="round" stroke-linejoin="round" stroke-width="2"/>
    <g id="그룹_296" data-name="그룹 296">
      <path id="패스_857" data-name="패스 857" d="M558,261.208H478l5.647-10h68.7Z" transform="translate(0 -1.208)" fill="#fff" stroke="#36c25d" stroke-linecap="round" stroke-linejoin="round" stroke-width="2"/>
      <g id="그룹_295" data-name="그룹 295">
        <path id="사각형_245" data-name="사각형 245" d="M478,260.522h16v8.921a6.178,6.178,0,0,1-6.273,6.079h-3.454A6.178,6.178,0,0,1,478,269.443v-8.921Z" transform="translate(0 -0.522)" fill="#fff" stroke="#36c25d" stroke-linecap="round" stroke-linejoin="round" stroke-width="2"/>
        <path id="사각형_246" data-name="사각형 246" d="M494.014,260.522h16v8.921a6.178,6.178,0,0,1-6.273,6.079h-3.454a6.178,6.178,0,0,1-6.273-6.079v-8.921Z" transform="translate(-0.014 -0.522)" fill="#fff" stroke="#36c25d" stroke-linecap="round" stroke-linejoin="round" stroke-width="2"/>
        <path id="사각형_247" data-name="사각형 247" d="M510.027,260.522h16v8.921a6.178,6.178,0,0,1-6.273,6.079H516.3a6.178,6.178,0,0,1-6.273-6.079v-8.921Z" transform="translate(-0.027 -0.522)" fill="#fff" stroke="#36c25d" stroke-linecap="round" stroke-linejoin="round" stroke-width="2"/>
        <path id="사각형_248" data-name="사각형 248" d="M526.041,260.522h16v8.921a6.178,6.178,0,0,1-6.273,6.079h-3.454a6.178,6.178,0,0,1-6.273-6.079v-8.921Z" transform="translate(-0.041 -0.522)" fill="#fff" stroke="#36c25d" stroke-linecap="round" stroke-linejoin="round" stroke-width="2"/>
        <path id="사각형_249" data-name="사각형 249" d="M542.052,260.522h16v8.921a6.178,6.178,0,0,1-6.273,6.079h-3.455a6.178,6.178,0,0,1-6.273-6.079v-8.921Z" transform="translate(-0.052 -0.522)" fill="#fff" stroke="#36c25d" stroke-linecap="round" stroke-linejoin="round" stroke-width="2"/>
      </g>
      <rect id="사각형_250" data-name="사각형 250" width="68" height="12" transform="translate(484 238)" fill="#fff" stroke="#36c25d" stroke-linecap="round" stroke-linejoin="round" stroke-width="2"/>
    </g>
    <g id="그룹_297" data-name="그룹 297">
      <line id="선_35" data-name="선 35" x2="34" transform="translate(502 333)" fill="none" stroke="#36c25d" stroke-linecap="round" stroke-linejoin="round" stroke-width="2"/>
      <line id="선_37" data-name="선 37" x2="34" transform="translate(502 325)" fill="none" stroke="#36c25d" stroke-linecap="round" stroke-linejoin="round" stroke-width="2"/>
      <line id="선_36" data-name="선 36" x2="20" transform="translate(502 341)" fill="none" stroke="#36c25d" stroke-linecap="round" stroke-linejoin="round" stroke-width="2"/>
      <path id="패스_858" data-name="패스 858" d="M502.976,312.9c0-7.732,6.716-14,15-14s15,6.268,15,14" transform="translate(1.024 4.102)" fill="#fff" stroke="#36c25d" stroke-linecap="round" stroke-linejoin="round" stroke-width="2"/>
      <path id="패스_859" data-name="패스 859" d="M529.085,333.8l5.268,4.826,8.732-8" transform="translate(-1.085 6.375)" fill="none" stroke="#36c25d" stroke-linecap="round" stroke-linejoin="round" stroke-width="2"/>
      <circle id="타원_31" data-name="타원 31" cx="7" cy="7" r="7" transform="translate(512 289)" fill="#fff" stroke="#36c25d" stroke-linecap="round" stroke-linejoin="round" stroke-width="2"/>
    </g>
  </g>
</svg>
