<svg id="load-regular" xmlns="http://www.w3.org/2000/svg" width="40" height="40" viewBox="0 0 40 40">
  <rect id="base" width="40" height="40" fill="none"/>
  <g id="spinners">
    <path id="muted" d="M17.5,38.946a3.556,3.556,0,1,1,2.515,1.041A3.555,3.555,0,0,1,17.5,38.946ZM4.832,31.635a3.556,3.556,0,1,1,3.556,3.556A3.556,3.556,0,0,1,4.832,31.635Zm-3.79-9.1a3.555,3.555,0,1,1,2.514,1.041A3.555,3.555,0,0,1,1.042,22.533Zm32.876-.05a3.555,3.555,0,1,1,2.514,1.041A3.555,3.555,0,0,1,33.918,22.483ZM4.8,8.388a3.556,3.556,0,1,1,3.556,3.556A3.555,3.555,0,0,1,4.8,8.388Zm23.248-.035A3.556,3.556,0,1,1,31.6,11.908,3.555,3.555,0,0,1,28.045,8.353ZM17.455,6.07a3.555,3.555,0,1,1,2.515,1.042A3.555,3.555,0,0,1,17.455,6.07Z" fill="#d3d3d3"/>
    <path id="active" d="M3.556,0A3.556,3.556,0,1,0,7.111,3.556,3.555,3.555,0,0,0,3.556,0Z" transform="translate(28.08 28.044)" fill="#121212"/>
  </g>
</svg>
