<svg width="13" height="10" viewBox="0 0 13 10" fill="none" xmlns="http://www.w3.org/2000/svg">
<path d="M4.34198 9.233C4.25525 9.18312 4.17555 9.12191 4.10498 9.05099L0.329956 5.27701C0.118579 5.0655 -9.37127e-05 4.77867 5.55256e-08 4.47964C9.38237e-05 4.18062 0.118934 3.89387 0.330444 3.6825C0.541955 3.47112 0.828781 3.35243 1.12781 3.35252C1.42683 3.35262 1.71361 3.47149 1.92499 3.683L5.06494 6.823L11.075 0.813004C11.2863 0.601493 11.5731 0.482607 11.8721 0.482513C12.1712 0.48242 12.4579 0.601123 12.6694 0.8125C12.8809 1.02388 12.9998 1.31062 12.9999 1.60965C13 1.90868 12.8814 2.19549 12.67 2.407L5.88898 9.188C5.68565 9.3913 5.41228 9.5092 5.12488 9.51756C4.83748 9.52593 4.55776 9.42413 4.34296 9.233H4.34198Z" fill="#198CFF"/>
</svg>
