<svg width="9" height="6" viewBox="0 0 9 6" fill="none" xmlns="http://www.w3.org/2000/svg">
<path d="M2.83719 5.81526C2.77986 5.78234 2.72715 5.74194 2.68047 5.69513L0.186731 3.20137C0.0610718 3.05898 -0.00558265 2.87405 0.000366553 2.68424C0.00631576 2.49443 0.0844189 2.31403 0.218748 2.1798C0.353078 2.04557 0.533512 1.9676 0.723326 1.96178C0.91314 1.95597 1.09804 2.02274 1.24034 2.1485L3.31471 4.2229L7.28521 0.252439C7.35262 0.176051 7.43494 0.114276 7.52714 0.0709247C7.61933 0.0275732 7.71942 0.00355794 7.82126 0.000366223C7.92309 -0.0028255 8.02452 0.0148732 8.11925 0.0523657C8.21398 0.0898582 8.30004 0.146356 8.37211 0.218372C8.44417 0.290388 8.50074 0.376399 8.53829 0.471105C8.57585 0.565811 8.59361 0.667206 8.59049 0.76904C8.58737 0.870875 8.56341 0.970989 8.52012 1.06322C8.47684 1.15545 8.41515 1.23784 8.33881 1.30531L3.86169 5.78243C3.72718 5.91644 3.54664 5.99414 3.35684 5.99968C3.16705 6.00523 2.98226 5.93821 2.84015 5.81228L2.83719 5.81526Z" fill="#198CFF"/>
</svg>
