<svg xmlns="http://www.w3.org/2000/svg" width="20" height="16" viewBox="0 0 20 16">
  <g id="icon" transform="translate(-451 73) rotate(-90)">
    <g id="사각형_327" data-name="사각형 327" transform="translate(57 471) rotate(-90)" fill="#fff" stroke="#999" stroke-width="2">
      <rect width="20" height="16" rx="4" stroke="none"/>
      <rect x="1" y="1" width="18" height="14" rx="3" fill="none"/>
    </g>
    <circle id="타원_48" data-name="타원 48" cx="2" cy="2" r="2" transform="translate(65 455)" fill="#999"/>
    <path id="패스_2330" data-name="패스 2330" d="M75.381,488.506l-1.092-1.89-.8-1.388a.577.577,0,0,0-1.092,0l-.8,1.388-.845,1.462c-.164.284-.621.138-1.016-.324l-.437-.511a.916.916,0,0,0-1.435,0l-.459.537-1.435,1.681-.459.537c-.395.462-.2.841.438.841h9.627c.636,0,.91-.425.61-.945Z" transform="translate(550.839 391.695) rotate(90)" fill="#999"/>
  </g>
</svg>
