<svg width="24" height="24" viewBox="0 0 24 24" fill="none" xmlns="http://www.w3.org/2000/svg">
<g clip-path="url(#clip0_712_32017)">
<path d="M18.364 15.5362L16.95 14.1202L18.364 12.7062C18.8316 12.2427 19.2031 11.6913 19.4571 11.0838C19.711 10.4763 19.8425 9.82465 19.844 9.1662C19.8454 8.50775 19.7168 7.8555 19.4655 7.24689C19.2142 6.63828 18.8451 6.08531 18.3795 5.61971C17.9139 5.15412 17.3609 4.78507 16.7523 4.53376C16.1437 4.28245 15.4915 4.15382 14.833 4.15526C14.1746 4.1567 13.5229 4.28819 12.9154 4.54216C12.3079 4.79614 11.7565 5.1676 11.293 5.63523L9.879 7.05023L8.464 5.63623L9.88 4.22223C11.1928 2.90941 12.9734 2.17188 14.83 2.17188C16.6866 2.17188 18.4672 2.90941 19.78 4.22223C21.0928 5.53505 21.8304 7.31562 21.8304 9.17223C21.8304 11.0288 21.0928 12.8094 19.78 14.1222L18.365 15.5362H18.364ZM15.536 18.3642L14.121 19.7782C12.8082 21.0911 11.0276 21.8286 9.171 21.8286C7.31439 21.8286 5.53382 21.0911 4.221 19.7782C2.90817 18.4654 2.17064 16.6848 2.17064 14.8282C2.17064 12.9716 2.90817 11.1911 4.221 9.87823L5.636 8.46423L7.05 9.88023L5.636 11.2942C5.16837 11.7578 4.7969 12.3091 4.54292 12.9166C4.28895 13.5241 4.15747 14.1758 4.15602 14.8343C4.15458 15.4927 4.28321 16.145 4.53452 16.7536C4.78584 17.3622 5.15488 17.9152 5.62048 18.3808C6.08607 18.8463 6.63905 19.2154 7.24765 19.4667C7.85626 19.718 8.50851 19.8466 9.16696 19.8452C9.82541 19.8438 10.4771 19.7123 11.0846 19.4583C11.6921 19.2043 12.2434 18.8329 12.707 18.3652L14.121 16.9512L15.536 18.3652V18.3642ZM14.828 7.75723L16.243 9.17223L9.172 16.2422L7.757 14.8282L14.828 7.75823V7.75723Z" fill="black"/>
</g>
<defs>
<clipPath id="clip0_712_32017">
<rect width="24" height="24" fill="white"/>
</clipPath>
</defs>
</svg>
