<?xml version="1.0" encoding="utf-8"?>
<!-- Generator: Adobe Illustrator 22.1.0, SVG Export Plug-In . SVG Version: 6.00 Build 0)  -->
<svg version="1.1" id="Layer_1" xmlns="http://www.w3.org/2000/svg" xmlns:xlink="http://www.w3.org/1999/xlink" x="0px" y="0px"
	 viewBox="0 0 27.5 27.5" style="enable-background:new 0 0 27.5 27.5;" xml:space="preserve">
<style type="text/css">
	.st0{fill:#FF4200;}
	.st1{fill:#FFFFFF;}
</style>
<path class="st0" d="M22.4,27.5H5.1c-2.8,0-5.1-2.3-5.1-5.1V5.1C0,2.3,2.3,0,5.1,0h17.3c2.8,0,5.1,2.3,5.1,5.1v17.3
	C27.5,25.2,25.2,27.5,22.4,27.5z"/>
<title>ico-new</title>
<path class="st1" d="M7.1,20.4V7.1h2.5l5.7,6.7c1.2,1.4,2.2,2.8,3.2,4.3h0.1c-0.2-1.8-0.3-3.6-0.3-5.4V7.1h2.2v13.3h-2.3l-5.6-6.7
	c-1.2-1.4-2.3-2.9-3.3-4.4H9.1c0.1,1.7,0.2,3.3,0.2,5.5v5.7H7.1z"/>
</svg>
