<?xml version="1.0"?>
<svg xmlns="http://www.w3.org/2000/svg" xmlns:xlink="http://www.w3.org/1999/xlink" xmlns:svgjs="http://svgjs.com/svgjs" version="1.1" width="512" height="512" x="0" y="0" viewBox="0 0 513.552 513.552" style="enable-background:new 0 0 512 512" xml:space="preserve" class=""><g>
<g xmlns="http://www.w3.org/2000/svg">
	<g>
		<path d="M510.132,489.755c-0.476-0.556-0.995-1.075-1.552-1.552L276.9,256.382l231.822-231.68c5.577-5.577,5.577-14.619,0-20.196    c-5.577-5.577-14.619-5.577-20.196,0l-231.68,231.822L25.167,4.506c-5.577-5.577-14.619-5.577-20.196,0s-5.577,14.619,0,20.196    l231.822,231.68L4.972,488.062c-5.966,5.109-6.661,14.087-1.552,20.053c5.109,5.966,14.087,6.661,20.053,1.552    c0.556-0.476,1.075-0.995,1.552-1.552l231.822-231.68l231.68,231.822c5.109,5.966,14.087,6.661,20.053,1.552    C514.546,504.699,515.241,495.721,510.132,489.755z" fill="#ffffff" data-original="#000000" class=""/>
	</g>
</g>
<g xmlns="http://www.w3.org/2000/svg">
</g>
<g xmlns="http://www.w3.org/2000/svg">
</g>
<g xmlns="http://www.w3.org/2000/svg">
</g>
<g xmlns="http://www.w3.org/2000/svg">
</g>
<g xmlns="http://www.w3.org/2000/svg">
</g>
<g xmlns="http://www.w3.org/2000/svg">
</g>
<g xmlns="http://www.w3.org/2000/svg">
</g>
<g xmlns="http://www.w3.org/2000/svg">
</g>
<g xmlns="http://www.w3.org/2000/svg">
</g>
<g xmlns="http://www.w3.org/2000/svg">
</g>
<g xmlns="http://www.w3.org/2000/svg">
</g>
<g xmlns="http://www.w3.org/2000/svg">
</g>
<g xmlns="http://www.w3.org/2000/svg">
</g>
<g xmlns="http://www.w3.org/2000/svg">
</g>
<g xmlns="http://www.w3.org/2000/svg">
</g>
</g></svg>
