<svg xmlns="http://www.w3.org/2000/svg" width="24" height="24" viewBox="0 0 24 24">
    <path fill="none" d="M0 0H24V24H0z" opacity="0.2"/>
    <path fill="#666" d="M793.333 564.333l-2.666-2.666a2.278 2.278 0 0 0-3.221 0l-14.514 14.515a1 1 0 0 0-.286.583l-.638 5.111A1 1 0 0 0 773 583a1.032 1.032 0 0 0 .124-.008l5.111-.638a1 1 0 0 0 .583-.286l14.515-14.514a2.28 2.28 0 0 0 0-3.221zM779.059 579L776 575.941l10.5-10.5 3.058 3.058zm-4.47-1.643l3.055 3.055-3.493.438zm17.33-11.216l-.945.945-3.059-3.059.945-.945a.281.281 0 0 1 .393 0l2.666 2.666a.279.279 0 0 1 0 .392z" transform="translate(-771 -560)"/>
</svg>
