<svg xmlns="http://www.w3.org/2000/svg"><symbol id="icon-checkbox" viewBox="0 0 22 22"><g transform="translate(-1 -.5)"><rect width="22" height="22" fill="#36c25d" rx="11" transform="translate(1 .5)"/><path fill="none" d="M2 1.5h20v20H2z"/><path fill="none" stroke="#fff" stroke-linecap="round" stroke-linejoin="round" stroke-width="1.5" d="M6.5 10.895l4.632 4.052L17.5 8"/></g></symbol><symbol id="icon-checkbox-off" viewBox="0 0 22 22"><g fill="#fff" stroke="#d3d3d3"><rect width="22" height="22" stroke="none" rx="11"/><rect width="21" height="21" x=".5" y=".5" fill="none" rx="10.5"/></g><path fill="none" d="M1 1h20v20H1z"/><path fill="none" stroke="#d3d3d3" stroke-linecap="round" stroke-linejoin="round" stroke-width="1.5" d="M5.5 10.395l4.632 4.052L16.5 7.5"/></symbol><symbol id="icon-checkbox-disabled" viewBox="0 0 22 22"><g fill="#f7f7f7" stroke="#d3d3d3"><rect width="22" height="22" stroke="none" rx="11"/><rect width="21" height="21" x=".5" y=".5" fill="none" rx="10.5"/></g><path fill="none" d="M1 1h20v20H1z"/><path fill="none" stroke="#d3d3d3" stroke-linecap="round" stroke-linejoin="round" stroke-width="1.5" d="M5.5 10.395l4.632 4.052L16.5 7.5"/></symbol><symbol id="icon-radio-off" viewBox="0 0 22 22"><g fill="#fff" stroke="#d3d3d3"><rect width="22" height="22" stroke="none" rx="11"/><rect width="21" height="21" x=".5" y=".5" fill="none" rx="10.5"/></g></symbol><symbol id="icon-radio-disabled" viewBox="0 0 22 22"><g fill="#f7f7f7" stroke="#d3d3d3"><rect width="22" height="22" stroke="none" rx="11"/><rect width="21" height="21" x=".5" y=".5" fill="none" rx="10.5"/></g></symbol><symbol id="icon-radio" viewBox="0 0 22 22"><g fill="none" stroke="#36c25d"><rect width="22" height="22" stroke="none" rx="11"/><rect width="21" height="21" x=".5" y=".5" rx="10.5"/></g><path fill="#36c25d" d="M11 18a7 7 0 1 0-7-7 7 7 0 0 0 7 7z"/></symbol></svg>