<?xml version="1.0" encoding="utf-8"?>
<!-- Generator: Adobe Illustrator 22.1.0, SVG Export Plug-In . SVG Version: 6.00 Build 0)  -->
<svg version="1.1" id="Layer_1" xmlns="http://www.w3.org/2000/svg" xmlns:xlink="http://www.w3.org/1999/xlink" x="0px" y="0px"
	 viewBox="0 0 24 24" style="enable-background:new 0 0 24 24;" xml:space="preserve">
<style type="text/css">
	.st0{fill:none;}
	.st1{fill:none;stroke:#FFFFFF;stroke-width:1.5;}
</style>
<path class="st0" d="M0,0h24v24H0V0z"/>
<path class="st1" d="M9.9,21.7c0.7,0.4,1.5,0.4,2.2,0l2.1-1.1c0.7-0.4,1.1-1.2,1.1-1.9v-7l6.1-5.9c0.6-0.6,0.8-1.6,0.5-2.4
	C21.5,2.5,20.7,2,19.8,2H4.2c-0.9,0-1.7,0.5-2,1.4C1.8,4.2,2,5.2,2.6,5.8l6.1,5.9v8.1C8.8,20.6,9.2,21.3,9.9,21.7z"/>
</svg>
