<svg xmlns="http://www.w3.org/2000/svg" width="24" height="24" viewBox="0 0 24 24"><path fill="none" d="M0 0h24v24H0z"/><path fill="#121212" d="M21.8 11.255a9.758 9.758 0 0 0-2.36-4.92 6.225 6.225 0 0 0-6.445-5.195C9.382 1.14 7.013 2.799 6.01 5a9.9 9.9 0 0 0-3.81 6.255C1.118 11.1 0 12.16 0 13.88c0 1.48.875 2.64 1.995 2.64a1.5 1.5 0 0 0 .67-.155 9.947 9.947 0 0 0 18.67 0 1.539 1.539 0 0 0 .665.15c1.12 0 2-1.16 2-2.64 0-1.74-1.151-2.782-2.2-2.62zM1.995 15.52c-.53 0-.995-.765-.995-1.64 0-.777.446-1.741 1.08-1.635a9.935 9.935 0 0 0 .275 3.11.1.1 0 0 0 .01.04.67.67 0 0 1-.37.125zm10 6.36A8.945 8.945 0 0 1 6.61 5.795a.018.018 0 0 0 .015-.005c1.381-.71 4.756-1.593 5.69-.43.22.265.175.405.16.455-.06.2-.425.76-2.53 1.445a.507.507 0 0 0-.34.4.5.5 0 0 0 .2.485 4.867 4.867 0 0 0 7.275-2.09l1.565.9a8.955 8.955 0 0 1-6.65 14.925zm9.64-6.48a10.3 10.3 0 0 0 .285-3.155c.565-.08 1.08.7 1.08 1.635 0 1.021-.682 2-1.365 1.52z"/><path fill="none" stroke="#121212" stroke-linecap="round" stroke-linejoin="round" stroke-width="1.1" d="M6.927 11.904a1.773 1.773 0 0 1 3.468 0m3.901 0a1.773 1.773 0 0 1 3.468 0M8.227 17a5.016 5.016 0 0 0 7.054.748 5.017 5.017 0 0 0 .748-.748"/></svg>