<?xml version="1.0"?>
<!--Icons from directory ""-->
<svg xmlns="http://www.w3.org/2000/svg" width="24" height="192" viewBox="0 0 24 192"><svg width="24" height="24" id="icon-bottom" y="0"><path fill="none" d="M0 0h24v24H0z"/><path d="M11.999 2.67v18.667m0 0l8-8m-8 8l-8-8" fill="none" stroke="#121212" stroke-linecap="round" stroke-linejoin="round" stroke-width="1.5"/></svg><svg width="24" height="24" id="icon-down" y="24"><path fill="none" d="M0 0h24v24H0z"/><path d="M20 8l-8 8-8-8" fill="none" stroke="#121212" stroke-linecap="round" stroke-linejoin="round" stroke-width="1.5"/></svg><svg width="24" height="24" id="icon-left" y="48"><path fill="none" d="M0 0h24v24H0z"/><path d="M16 20l-8-8 8-8" fill="none" stroke="#121212" stroke-linecap="round" stroke-linejoin="round" stroke-width="1.5"/></svg><svg width="24" height="24" id="icon-next" y="72"><path fill="none" d="M0 0h24v24H0z"/><path d="M2.67 12h18.667m0 0l-8-8m8 8l-8 8" fill="none" stroke="#121212" stroke-linecap="round" stroke-linejoin="round" stroke-width="1.5"/></svg><svg width="24" height="24" id="icon-prev" y="96"><path fill="none" d="M0 0h24v24H0z"/><path d="M21.337 12H2.67m0 0l8 8m-8-8l8-8" fill="none" stroke="#121212" stroke-linecap="round" stroke-linejoin="round" stroke-width="1.5"/></svg><svg width="24" height="24" id="icon-right" y="120"><path fill="none" d="M0 0h24v24H0z"/><path d="M8 4l8 8-8 8" fill="none" stroke="#121212" stroke-linecap="round" stroke-linejoin="round" stroke-width="1.5"/></svg><svg width="24" height="24" id="icon-top" y="144"><path fill="none" d="M0 0h24v24H0z"/><path d="M12 21.337V2.67m0 0l-8 8m8-8l8 8" fill="none" stroke="#121212" stroke-linecap="round" stroke-linejoin="round" stroke-width="1.5"/></svg><svg width="24" height="24" id="icon-up" y="168"><path fill="none" d="M0 0h24v24H0z"/><path d="M3.999 16l8-8 8 8" fill="none" stroke="#121212" stroke-linecap="round" stroke-linejoin="round" stroke-width="1.5"/></svg></svg>
