<svg xmlns="http://www.w3.org/2000/svg" width="20" height="20" viewBox="0 0 20 20">
  <g id="icon-memo" transform="translate(-723 -3122)">
    <rect id="base" width="20" height="20" transform="translate(723 3122)" fill="none" opacity="0.2"/>
    <g id="icon" transform="translate(722.6 3122)">
      <line id="line" x2="3.2" transform="translate(8 13.2)" fill="none" stroke="#121212" stroke-linecap="round" stroke-width="1.5"/>
      <line id="line-2" data-name="line" x2="4.8" transform="translate(8 10)" fill="none" stroke="#121212" stroke-linecap="round" stroke-width="1.5"/>
      <g id="path" transform="translate(4 2)" fill="none">
        <path d="M9.6,0h-8A1.6,1.6,0,0,0,0,1.6V14.4A1.6,1.6,0,0,0,1.6,16h9.6a1.6,1.6,0,0,0,1.6-1.6V3.2Z" stroke="none"/>
        <path d="M 1.600000381469727 1.5 C 1.544859886169434 1.5 1.5 1.544859886169434 1.5 1.600000381469727 L 1.5 14.39999961853027 C 1.5 14.45514011383057 1.544859886169434 14.5 1.600000381469727 14.5 L 11.19999980926514 14.5 C 11.25514030456543 14.5 11.30000019073486 14.45514011383057 11.30000019073486 14.39999961853027 L 11.30000019073486 3.821319580078125 L 8.978679656982422 1.5 L 1.600000381469727 1.5 M 1.600000381469727 0 L 9.600000381469727 0 L 12.80000019073486 3.199999809265137 L 12.80000019073486 14.39999961853027 C 12.80000019073486 15.2836799621582 12.08368015289307 16 11.19999980926514 16 L 1.600000381469727 16 C 0.7163400650024414 16 0 15.2836799621582 0 14.39999961853027 L 0 1.600000381469727 C 0 0.7163400650024414 0.7163400650024414 0 1.600000381469727 0 Z" stroke="none" fill="#121212"/>
      </g>
      <line id="line-3" data-name="line" y2="3.2" transform="translate(12.4 3)" fill="none" stroke="#121212" stroke-linecap="round" stroke-width="1.5"/>
      <line id="line-4" data-name="line" x2="3.2" transform="translate(12.4 6.5)" fill="none" stroke="#121212" stroke-linecap="round" stroke-width="1.5"/>
    </g>
  </g>
</svg>
