<svg id="icon-product" xmlns="http://www.w3.org/2000/svg" width="40" height="40" viewBox="0 0 40 40">
  <rect id="base" width="40" height="40" fill="none"/>
  <g id="icon" transform="translate(5.067 5.066)">
    <rect id="rectangle" width="29.867" height="7.467" rx="1" transform="translate(0 5.333)" fill="none" stroke="#121212" stroke-miterlimit="10" stroke-width="1.5"/>
    <path id="path" d="M0,0H23.467V14.933a2.133,2.133,0,0,1-2.133,2.133H2.133A2.133,2.133,0,0,1,0,14.933Z" transform="translate(3.2 12.8)" fill="none" stroke="#121212" stroke-miterlimit="10" stroke-width="1.5"/>
    <path id="path-2" data-name="path" d="M.533,24.533V0" transform="translate(14.4 5.333)" fill="none" stroke="#121212" stroke-miterlimit="10" stroke-width="1.5"/>
    <path id="path-3" data-name="path" d="M0,5.333A5.333,5.333,0,0,1,5.333,0" transform="translate(14.933)" fill="none" stroke="#121212" stroke-linecap="round" stroke-linejoin="round" stroke-miterlimit="10" stroke-width="1.5"/>
    <path id="path-4" data-name="path" d="M5.333,5.333A5.333,5.333,0,0,0,3.771,1.562,5.333,5.333,0,0,0,0,0" transform="translate(9.6)" fill="none" stroke="#121212" stroke-linecap="round" stroke-linejoin="round" stroke-miterlimit="10" stroke-width="1.5"/>
  </g>
</svg>
