<svg xmlns="http://www.w3.org/2000/svg" width="20" height="20" viewBox="0 0 20 20">
  <g id="icon-cal" transform="translate(-723 -3122)">
    <rect id="base" width="20" height="20" transform="translate(723 3122)" fill="none"/>
    <g id="icon" transform="translate(725.467 3124.467)">
      <path id="path" d="M11.5,0h1a1.5,1.5,0,0,1,1.073.488A1.627,1.627,0,0,1,14,1.622v9.755a1.627,1.627,0,0,1-.427,1.134A1.5,1.5,0,0,1,12.5,13H1.5a1.5,1.5,0,0,1-1.073-.488A1.627,1.627,0,0,1,0,11.378V1.622A1.627,1.627,0,0,1,.427.488,1.5,1.5,0,0,1,1.5,0H11.875" transform="translate(0.533 1.533)" fill="none" stroke="#121212" stroke-linecap="round" stroke-linejoin="round" stroke-miterlimit="10" stroke-width="1.5"/>
      <path id="path-2" data-name="path" d="M.533,0V3" transform="translate(4 0.033)" fill="none" stroke="#121212" stroke-linecap="round" stroke-linejoin="round" stroke-miterlimit="10" stroke-width="1.5"/>
      <path id="path-3" data-name="path" d="M.533,0V3" transform="translate(10 0.033)" fill="none" stroke="#121212" stroke-linecap="round" stroke-linejoin="round" stroke-miterlimit="10" stroke-width="1.5"/>
      <path id="path-4" data-name="path" d="M0,.533H14" transform="translate(0.533 5.999)" fill="none" stroke="#121212" stroke-linecap="round" stroke-linejoin="round" stroke-miterlimit="10" stroke-width="1.5"/>
      <path id="path-5" data-name="path" d="M0,.533H14" transform="translate(0.533 10)" fill="none" stroke="#121212" stroke-linecap="round" stroke-linejoin="round" stroke-miterlimit="10" stroke-width="1.5"/>
      <path id="path-6" data-name="path" d="M.533,0V8" transform="translate(3.5 6.533)" fill="none" stroke="#121212" stroke-linecap="round" stroke-linejoin="round" stroke-miterlimit="10" stroke-width="1.5"/>
      <path id="path-7" data-name="path" d="M.533,0V8" transform="translate(7 6.533)" fill="none" stroke="#121212" stroke-linecap="round" stroke-linejoin="round" stroke-miterlimit="10" stroke-width="1.5"/>
      <path id="path-8" data-name="path" d="M.533,0V8" transform="translate(10.499 6.533)" fill="none" stroke="#121212" stroke-linecap="round" stroke-linejoin="round" stroke-miterlimit="10" stroke-width="1.5"/>
    </g>
  </g>
</svg>
