<?xml version="1.0" encoding="utf-8"?>
<!-- Generator: Adobe Illustrator 22.1.0, SVG Export Plug-In . SVG Version: 6.00 Build 0)  -->
<svg version="1.1" id="Layer_1" xmlns:svgjs="http://svgjs.com/svgjs"
	 xmlns="http://www.w3.org/2000/svg" xmlns:xlink="http://www.w3.org/1999/xlink" x="0px" y="0px" viewBox="0 0 512 512"
	 style="enable-background:new 0 0 512 512;" xml:space="preserve">
<style type="text/css">
	.st0{fill:#666666;}
	.st1{fill:#FFFFFF;}
</style>
<g>
	<g>
		<g id="exclmation_mark_8_">
			<g>
				<path class="st0" d="M256,0C114.9,0,0,114.9,0,256s114.9,256,256,256s256-114.9,256-256S397.1,0,256,0z M256,460.9
					c-112.9,0-204.9-91.9-204.9-204.9S143.1,51.1,256,51.1S460.9,143.1,460.9,256S368.9,460.9,256,460.9z"/>
				<circle class="st0" cx="251.8" cy="252" r="220.2"/>
				<path class="st1" d="M256,127.9c-14.2,0-25.6,11.5-25.6,25.6v128.1c0,14.2,11.4,25.6,25.6,25.6c14.2,0,25.6-11.5,25.6-25.6
					V153.6C281.6,139.5,270.2,127.9,256,127.9z"/>
				<path class="st1" d="M256,332.8c-6.6,0-13.3,2.8-18.1,7.4c-4.7,4.9-7.4,11.5-7.4,18.1c0,6.6,2.8,13.3,7.4,18.1
					c9.7,9.5,26.6,9.5,36.4,0c4.6-4.9,7.4-11.5,7.4-18.1c0-6.6-2.8-13.3-7.4-18.1C269.3,335.6,262.6,332.8,256,332.8L256,332.8z"/>
			</g>
		</g>
	</g>
</g>
</svg>
