<svg xmlns="http://www.w3.org/2000/svg" width="20" height="20" viewBox="0 0 20 20">
  <g id="icon-noti" transform="translate(-723 -3122)">
    <rect id="base" width="20" height="20" transform="translate(723 3122)" fill="none"/>
    <g id="icon" transform="translate(724 3124.5)">
      <path id="box" d="M2.651,0H5.862a0,0,0,0,1,0,0V5.3a0,0,0,0,1,0,0H2.651A2.651,2.651,0,0,1,0,2.651v0A2.651,2.651,0,0,1,2.651,0Z" transform="translate(0 4.873)" fill="none" stroke="#36c25d" stroke-linecap="round" stroke-linejoin="round" stroke-width="1.5"/>
      <path id="path" d="M410.58,687.934c-2.033-1.573-6.311-4.675-8.428-4.675v-5.3c1.778,0,6.327-3.182,8.44-4.735a.694.694,0,0,1,1.11.533v13.656A.694.694,0,0,1,410.58,687.934Z" transform="translate(-396.29 -673.085)" fill="none" stroke="#36c25d" stroke-linecap="round" stroke-linejoin="round" stroke-width="1.5"/>
      <path id="path-2" data-name="path" d="M415.615,680.441a2.5,2.5,0,1,1,0,4.994" transform="translate(-400.203 -675.406)" fill="none" stroke="#36c25d" stroke-linecap="round" stroke-linejoin="round" stroke-width="1.5"/>
    </g>
  </g>
</svg>
