<?xml version="1.0"?>
<!--Icons from directory ""-->
<svg xmlns="http://www.w3.org/2000/svg" width="24" height="720" viewBox="0 0 24 720"><svg width="24" height="24" id="icon-2x2" y="0"><path fill="none" d="M0 0h24v24H0z"/><g fill="#121212"><rect width="7" height="7" rx="1.5" transform="translate(13 13)"/><rect data-name="box" width="7" height="7" rx="1.5" transform="translate(4 13)"/><rect data-name="box" width="7" height="7" rx="1.5" transform="translate(13 4)"/><rect data-name="box" width="7" height="7" rx="1.5" transform="translate(4 4)"/></g></svg><svg width="24" height="24" id="icon-3x3" y="24"><path fill="none" d="M0 0h24v24H0z"/><g fill="#121212"><rect width="4" height="4" rx="1" transform="translate(16 16)"/><rect data-name="box" width="4" height="4" rx="1" transform="translate(10 16)"/><rect data-name="box" width="4" height="4" rx="1" transform="translate(4 16)"/><rect data-name="box" width="4" height="4" rx="1" transform="translate(16 10)"/><rect data-name="box" width="4" height="4" rx="1" transform="translate(10 10)"/><rect data-name="box" width="4" height="4" rx="1" transform="translate(4 10)"/><rect data-name="box" width="4" height="4" rx="1" transform="translate(16 4)"/><rect data-name="box" width="4" height="4" rx="1" transform="translate(10 4)"/><rect data-name="box" width="4" height="4" rx="1" transform="translate(4 4)"/></g></svg><svg width="24" height="24" id="icon-bag" y="48"><g fill="none"><path d="M0 0h24v24H0z"/><g stroke="#121212" stroke-linecap="round" stroke-linejoin="round" stroke-width="1.5"><path d="M5.829 2L2.71 6v14a2.041 2.041 0 002.079 2h14.554a2.041 2.041 0 002.079-2V6l-3.118-4zM2.71 5.768h18.713"/><path data-name="path" d="M15.834 10.116a3.768 3.768 0 11-7.536 0"/></g></g></svg><svg width="24" height="24" id="icon-bell" y="72"><path fill="none" d="M0 0h24v24H0z"/><g fill="none" stroke="#121212" stroke-linecap="round" stroke-linejoin="round" stroke-width="1.5"><path d="M18 8A6 6 0 006 8c0 7-3 9-3 9h18s-3-2-3-9"/><path data-name="path" d="M13.73 21a2 2 0 01-3.46 0"/></g></svg><svg width="24" height="24" id="icon-card" y="96"><path fill="none" d="M0 0h24v24H0z"/><path d="M2 10v7a2 2 0 002 2h16a2 2 0 002-2v-7M2 10V7a2 2 0 012-2h16a2 2 0 012 2v3M2 10h20m-3 4h-6" fill="none" stroke="#121212" stroke-linecap="round" stroke-width="1.5"/></svg><svg width="24" height="24" id="icon-category" y="120"><g fill="none"><path d="M0 0h24v24H0z"/><g stroke="#121212" stroke-linecap="round" stroke-width="1.5"><path d="M1 19h22"/><path data-name="line" d="M1 12h22M1 5h22"/></g></g></svg><svg width="24" height="24" id="icon-check" y="144"><path fill="none" d="M0 0h24v24H0z"/><path d="M2.5 11l8 7 11-12" fill="none" stroke="#121212" stroke-linecap="round" stroke-linejoin="round" stroke-width="1.5"/></svg><svg width="24" height="24" id="icon-child" y="168"><path fill="none" d="M0 0h24v24H0z"/><path d="M21.8 11.255a9.758 9.758 0 00-2.36-4.92 6.225 6.225 0 00-6.445-5.195C9.382 1.14 7.013 2.799 6.01 5a9.9 9.9 0 00-3.81 6.255C1.118 11.1 0 12.16 0 13.88c0 1.48.875 2.64 1.995 2.64a1.5 1.5 0 00.67-.155 9.947 9.947 0 0018.67 0 1.539 1.539 0 00.665.15c1.12 0 2-1.16 2-2.64 0-1.74-1.151-2.782-2.2-2.62zM1.995 15.52c-.53 0-.995-.765-.995-1.64 0-.777.446-1.741 1.08-1.635a9.935 9.935 0 00.275 3.11.1.1 0 00.01.04.67.67 0 01-.37.125zm10 6.36A8.945 8.945 0 016.61 5.795a.018.018 0 00.015-.005c1.381-.71 4.756-1.593 5.69-.43.22.265.175.405.16.455-.06.2-.425.76-2.53 1.445a.507.507 0 00-.34.4.5.5 0 00.2.485 4.867 4.867 0 007.275-2.09l1.565.9a8.955 8.955 0 01-6.65 14.925zm9.64-6.48a10.3 10.3 0 00.285-3.155c.565-.08 1.08.7 1.08 1.635 0 1.021-.682 2-1.365 1.52z" fill="#121212"/><path data-name="path" d="M6.927 11.904h0a1.773 1.773 0 013.468 0h0M14.296 11.904h0a1.773 1.773 0 013.468 0h0M8.227 17h0a5.016 5.016 0 007.054.748 5.017 5.017 0 00.748-.748h0" fill="none" stroke="#121212" stroke-linecap="round" stroke-linejoin="round" stroke-width="1.1"/></svg><svg width="24" height="24" id="icon-close" y="192"><path fill="none" d="M0 0h24v24H0z"/><path d="M5 5l7 7m7 7l-7-7m0 0l7-7L5 19" fill="none" stroke="#121212" stroke-linecap="round" stroke-linejoin="round" stroke-width="1.5"/></svg><svg width="24" height="24" id="icon-day" y="216"><path fill="none" d="M0 0h24v24H0z"/><path d="M16.7 15.244A8.011 8.011 0 019.592 3.557a.3.3 0 00-.348-.441 9.14 9.14 0 1011.646 11.54.3.3 0 00-.445-.343 7.95 7.95 0 01-3.745.931z" fill="none" stroke="#121212" stroke-width="1.5"/></svg><svg width="24" height="24" id="icon-error" y="240"><path fill="none" d="M0 0h24v24H0z"/><path d="M9 9l3 3m0 0l3 3m-3-3l3-3m-3 3l-3 3m3 8a11 11 0 1111-11 11 11 0 01-11 11z" fill="none" stroke="#121212" stroke-linecap="round" stroke-linejoin="round" stroke-width="1.5"/></svg><svg width="24" height="24" id="icon-filter" y="264"><path fill="none" d="M0 0h24v24H0z"/><path d="M9.869 21.691a2.213 2.213 0 002.2.033l2.055-1.11a2.355 2.355 0 001.094-1.948v-6.99l6.145-5.852a2.3 2.3 0 00.477-2.432A2.149 2.149 0 0019.789 2H4.199a2.136 2.136 0 00-2.047 1.392 2.309 2.309 0 00.469 2.432l6.145 5.852v8.1a2.34 2.34 0 001.103 1.915z" fill="none" stroke="#121212" stroke-width="1.5"/></svg><svg width="24" height="24" id="icon-home" y="288"><g fill="none"><path d="M0 0h24v24H0z"/><g stroke="#121212" stroke-linecap="round" stroke-linejoin="round" stroke-width="1.5"><path d="M2 9l10-7 10 7v11a2.12 2.12 0 01-2.222 2H4.222A2.12 2.12 0 012 20z"/><path data-name="path" d="M9 22V12h6v10"/></g></g></svg><svg width="24" height="24" id="icon-man" y="312"><path fill="none" d="M0 0h24v24H0z"/><g fill="#121212"><path d="M14.578 18.79a.561.561 0 00-.779.17c0 .006-.377.469-1.673.469-1.25 0-1.642-.431-1.672-.466a.571.571 0 00-.955.626c.063.1.671.983 2.627.983s2.565-.882 2.627-.983a.583.583 0 00-.175-.799z"/><path data-name="path" d="M1.731 13.046c.016.174.032.354.032.538 0 1.955.854 3.429 1.988 3.429h.027C5.012 21.095 8.386 24 11.986 24c3.506 0 6.95-3.094 8.209-7.287h.026c1.134 0 1.988-1.474 1.988-3.429 0-.179.015-.381.03-.586.015-.235.031-.474.032-.7a2.8 2.8 0 00-.047-.59 3.97 3.97 0 00.018-1.105 6.305 6.305 0 01-.033-.592 9.581 9.581 0 00-9.655-9.714c-6.353 0-10.791 3.994-10.791 9.714 0 .21-.014.448-.028.694a7.553 7.553 0 00.026 1.545 3.3 3.3 0 00-.03 1.096zm19.374-.425c-.016.233-.032.462-.032.665 0 1.418-.551 2.286-.852 2.286a.308.308 0 01-.12-.056.567.567 0 00-.851.349c-.981 3.986-4.1 6.993-7.264 6.993-3.253 0-6.307-2.816-7.263-6.695a.568.568 0 00-.339-.392.55.55 0 00-.212-.042.566.566 0 00-.3.087.291.291 0 01-.12.055c-.3 0-.852-.867-.852-2.286 0-.221-.018-.434-.037-.641-.011-.134-.023-.257-.027-.371h1.769a.568.568 0 00.568-.557 14.5 14.5 0 01.492-3.675 1.176 1.176 0 01.159-.337c.112 0 .25.013.407.024.307.022.676.047 1.065.047 1.866 0 2.8-.642 3.227-1.454a11.78 11.78 0 007.2 2.514 12.54 12.54 0 001.151 3.131.567.567 0 00.5.306h1.739z"/><path data-name="path" d="M9.763 13.142a.571.571 0 00-.571-.571H8.049a.572.572 0 000 1.143h1.143a.571.571 0 00.571-.572zM16.048 12.571h-1.143a.572.572 0 100 1.143h1.143a.572.572 0 000-1.143z"/></g></svg><svg width="24" height="24" id="icon-memo" y="336"><g fill="none"><path d="M0 0h24v24H0z"/><g stroke="#121212" stroke-linecap="round" stroke-linejoin="round" stroke-miterlimit="10" stroke-width="1.5"><path d="M16.587 3.254l2.16 2.16a2 2 0 01.587 1.413v12.507a2 2 0 01-2 2H6.667a2 2 0 01-2-2V4.667a2 2 0 012-2h8.507a2 2 0 011.413.587z"/><path data-name="path" d="M7.333 9.333h5.333M7.333 13.333H16M7.333 17.333H16"/></g></g></svg><svg width="24" height="24" id="icon-minus" y="360"><path fill="none" d="M0 0h24v24H0z"/><path d="M12 12H3" fill="none" stroke="#121212" stroke-linecap="round" stroke-linejoin="round" stroke-width="1.5"/></svg><svg width="24" height="24" id="icon-my" y="384"><g fill="none"><path d="M0 0h24v24H0z"/><g transform="translate(2.15 1.15)" stroke="#121212" stroke-linecap="round" stroke-linejoin="round" stroke-width="1.5"><path d="M18.628 20.85v-2.391a4.623 4.623 0 00-4.445-4.783H5.294A4.623 4.623 0 00.85 18.459v2.391"/><ellipse cx="4.782" cy="4.783" rx="4.782" ry="4.783" transform="translate(4.956 .85)"/></g></g></svg><svg width="24" height="24" id="icon-noti" y="408"><g fill="none"><path d="M0 0h24v24H0z"/><g stroke="#121212" stroke-linecap="round" stroke-linejoin="round" stroke-width="1.5"><path d="M4.358 8.672h3.807v6.716h0-3.807A3.358 3.358 0 011 12.03h0a3.358 3.358 0 013.358-3.358zM18.466 21.31c-2.485-1.992-7.714-5.922-10.3-5.922V8.672c2.174 0 7.733-4.031 10.316-6a.845.845 0 011.357.675v17.3a.845.845 0 01-1.373.663z"/><path data-name="path" d="M19.837 8.878a3.163 3.163 0 110 6.326"/></g></g></svg><svg width="24" height="24" id="icon-phone" y="432"><path fill="none" d="M0 0h24v24H0z"/><path d="M6.441 2.741a3.311 3.311 0 01.607.059 3.556 3.556 0 011.737.741 1.43 1.43 0 01.5.9l.467 2.963a1.481 1.481 0 01-.2 1.037 3.637 3.637 0 01-2.5 1.637 11.163 11.163 0 006.859 6.867 3.659 3.659 0 011.645-2.504 1.481 1.481 0 011.015-.2l2.963.467a1.481 1.481 0 01.9.511 3.622 3.622 0 01.741 1.733 3.245 3.245 0 01.081.607 3.7 3.7 0 01-3.326 3.7h-.756A14.815 14.815 0 012.741 6.823V6.06a3.7 3.7 0 013.7-3.319z" fill="none" stroke="#121212" stroke-linecap="round" stroke-linejoin="round" stroke-miterlimit="10" stroke-width="1.5"/></svg><svg width="24" height="24" id="icon-pick" y="456"><path fill="none" d="M0 0h24v24H0z"/><path d="M20.188 5.001a4.987 4.987 0 00-7.134 0l-.974.988-.972-.987a4.989 4.989 0 00-7.134 0 5.182 5.182 0 000 7.247l.972.987 7.134 7.247 7.134-7.247.972-.987a5.181 5.181 0 000-7.247z" fill="none" stroke="#121212" stroke-linecap="round" stroke-linejoin="round" stroke-width="1.5"/></svg><svg width="24" height="24" id="icon-pickshop" y="480"><path fill="none" d="M0 0h24v24H0z"/><path d="M10.007 2.759l-6 5.337A3 3 0 003 10.339v8.658a3 3 0 003 3h12a3 3 0 003-3v-8.659a3 3 0 00-1.007-2.241l-6-5.337a3 3 0 00-3.986-.001z" fill="none" stroke="#121212" stroke-linecap="round" stroke-width="1.5"/></svg><svg width="24" height="24" id="icon-plus" y="504"><path fill="none" d="M0 0h24v24H0z"/><path d="M12 12V3m0 9v9m0-9h9m-9 0H3" fill="none" stroke="#121212" stroke-linecap="round" stroke-linejoin="round" stroke-width="1.5"/></svg><svg width="24" height="24" id="icon-reset" y="528"><path fill="none" d="M0 0h24v24H0z"/><path d="M12.279 1.68l4.25 4.25-4.25 4.25m8.221 3.681a8.5 8.5 0 11-8.5-8.5 7.152 7.152 0 013.546.708" fill="none" stroke="#121212" stroke-linecap="round" stroke-linejoin="round" stroke-width="1.5"/></svg><svg width="24" height="24" id="icon-search" y="552"><g fill="none"><path d="M0 0h24v24H0z"/><g transform="translate(2 2)" stroke="#121212" stroke-linecap="round" stroke-linejoin="round" stroke-width="1.5"><circle cx="9.02" cy="9.02" r="9.02"/><path d="M20 20l-4.262-4.262"/></g></g></svg><svg width="24" height="24" id="icon-setting" y="576"><g fill="none"><path d="M0 0h24v24H0z"/><g transform="translate(1 1)" stroke="#121212" stroke-linecap="round" stroke-linejoin="round" stroke-miterlimit="10" stroke-width="1.5"><path d="M12.577 1.467l.909 1.063a2.083 2.083 0 001.745.733l1.393-.117a2.075 2.075 0 012.2 2.237l-.117 1.393a2.083 2.083 0 00.73 1.745l1.093.9a2.068 2.068 0 010 3.153l-1.063.909a2.083 2.083 0 00-.73 1.748l.117 1.393a2.075 2.075 0 01-2.2 2.2l-1.393-.117a2.083 2.083 0 00-1.745.733l-.939 1.097a2.068 2.068 0 01-3.153 0l-.909-1.063a2.083 2.083 0 00-1.746-.737l-1.393.117a2.075 2.075 0 01-2.2-2.2l.117-1.393a2.083 2.083 0 00-.733-1.745l-1.093-.939a2.068 2.068 0 010-3.153l1.063-.909a2.083 2.083 0 00.733-1.745l-.117-1.395a2.075 2.075 0 012.237-2.2l1.393.117a2.083 2.083 0 001.745-.733l.902-1.092a2.068 2.068 0 013.153 0z"/><circle cx="2.933" cy="2.933" r="2.933" transform="translate(8.067 8.066)"/></g></g></svg><svg width="24" height="24" id="icon-success" y="600"><path fill="none" d="M0 0h24v24H0z"/><path d="M8 12l3 3 5-5m-4 13a11 11 0 1111-11 11 11 0 01-11 11z" fill="none" stroke="#121212" stroke-linecap="round" stroke-linejoin="round" stroke-width="1.5"/></svg><svg width="24" height="24" id="icon-trash" y="624"><g fill="none"><path d="M0 0h24v24H0z"/><g stroke="#121212" stroke-linecap="round" stroke-linejoin="round" stroke-miterlimit="10" stroke-width="1.5"><path d="M3.2 4.667h17.6"/><path data-name="path" d="M9.067 4.667v-2.2a.733.733 0 01.733-.733h4.4a.733.733 0 01.733.733v2.2M9.8 11.267V18.6M14.2 11.267V18.6"/><path data-name="path" d="M4.667 4.667h14.667v15.4a2.2 2.2 0 01-2.2 2.2H6.867a2.2 2.2 0 01-2.2-2.2z"/></g></g></svg><svg width="24" height="24" id="icon-woman" y="648"><path fill="none" d="M0 0h24v24H0z"/><g fill="#121212"><path d="M14.477 18.435a.534.534 0 00-.744.162c0 .005-.36.447-1.6.447-1.193 0-1.568-.411-1.6-.445a.546.546 0 00-.912.6c.06.1.64.938 2.508.938s2.448-.842 2.508-.938a.556.556 0 00-.16-.764z"/><path data-name="path" d="M9.818 13.045a.546.546 0 00-.545-.545H8.182a.545.545 0 100 1.091h1.091a.546.546 0 00.545-.546zM15.818 12.5h-1.091a.545.545 0 100 1.091h1.091a.545.545 0 000-1.091z"/><path data-name="path" d="M6.994 21.355a.475.475 0 00.1.009h.011c.02 0 .034-.008.052-.008a6.751 6.751 0 004.709 2.053 7.725 7.725 0 005-2.077c.968-.172 5.59-1.057 6.978-2.446a.545.545 0 000-.772c-.816-.816-1.557-3.266-1.887-6.241a19.893 19.893 0 01-.134-2.1C21.823 4.747 17.264.5 11.869.5a9.494 9.494 0 00-9.682 9.273c0 .206-.013.438-.027.678a42.16 42.16 0 00-.024.508c-.019.249-.04.508-.069.78-.322 3.038-1.069 5.541-1.9 6.374a.547.547 0 000 .772c1.456 1.464 6.281 2.37 6.827 2.47zm.29-1.462a10.579 10.579 0 01-1.988-4.114.545.545 0 00-.817-.332.3.3 0 01-.116.052c-.289 0-.818-.828-.818-2.182a2.262 2.262 0 00-.207-.876.873.873 0 01-.094-.315v-.009c.118-.052.245-.111.379-.176 1.635-.782 4.221-2.411 4.922-5.108a18.278 18.278 0 003.528 2.527 23.851 23.851 0 008.256 3.033c.106.014.21.02.315.03a4.18 4.18 0 01.079.758c0 1.432-.447 2.181-.687 2.181a.3.3 0 01-.116-.052.54.54 0 00-.493-.043.546.546 0 00-.325.374 9.631 9.631 0 01-2.831 4.76 6.715 6.715 0 01-4.412 1.917 5.971 5.971 0 01-4.575-2.425z"/></g></svg><svg width="24" height="24" id="icon-write-1" y="672"><path fill="none" d="M0 0h24v24H0z"/><path d="M20 14.66V20a2 2 0 01-2 2H4a2 2 0 01-2-2V6a2 2 0 012-2h5.34M18 2l4 4-10 10H8v-4z" fill="none" stroke="#121212" stroke-linecap="round" stroke-linejoin="round" stroke-width="1.5"/></svg><svg width="24" height="24" id="icon-write" y="696"><path fill="none" d="M0 0h24v24H0z"/><path d="M18.7 11.285l-9.912 9.912a.3.3 0 01-.212.088H3a.3.3 0 01-.3-.3v-5.576a.3.3 0 01.088-.212L12.7 5.285m6 6l2.293-2.293a1 1 0 000-1.414l-4.586-4.586a1 1 0 00-1.414 0L12.7 5.285m6 6l-6-6" fill="none" stroke="#121212" stroke-width="1.5"/></svg></svg>
