<?xml version="1.0"?>
<!--Icons from directory ""-->
<svg xmlns="http://www.w3.org/2000/svg" width="24" height="264" viewBox="0 0 24 264"><svg width="24" height="24" id="icon-close-1" y="0"><path fill="none" d="M0 0h24v24H0z"/><path d="M7 7l5 5m5 5l-5-5m0 0l5-5L7 17" fill="none" stroke="#121212" stroke-linecap="round" stroke-linejoin="round" stroke-width="1.5"/></svg><svg width="24" height="24" id="icon-close" y="24"><path fill="none" d="M0 0h24v24H0z"/><g data-name="icon-close" transform="translate(1 1.5)"><rect width="16" height="16" rx="8" transform="translate(3 2.5)" fill="#121212"/><path d="M8 7.5l3 3m3 3l-3-3m0 0l3-3-6 6" fill="none" stroke="#fff" stroke-linecap="round" stroke-linejoin="round" stroke-width="1.5"/></g></svg><svg width="24" height="24" id="icon-day" y="48"><path fill="none" d="M0 0h24v24H0z"/><path d="M15.429 14.371a5.852 5.852 0 01-5.19-8.537.221.221 0 00-.254-.322 6.676 6.676 0 108.5 8.429.221.221 0 00-.325-.251 5.8 5.8 0 01-2.731.681z" fill="none" stroke="#121212" stroke-width="1.5"/></svg><svg width="24" height="24" id="icon-filter" y="72"><path fill="none" d="M0 0h24v24H0z"/><path d="M10.508 18.784a1.547 1.547 0 001.541.023l1.439-.777a1.648 1.648 0 00.766-1.363v-4.893l4.3-4.1a1.606 1.606 0 00.334-1.7A1.5 1.5 0 0017.452 5H6.538a1.494 1.494 0 00-1.432.974 1.616 1.616 0 00.328 1.7l4.3 4.1v5.671a1.636 1.636 0 00.774 1.339z" fill="none" stroke="#121212" stroke-width="1.5"/></svg><svg width="24" height="24" id="icon-minus" y="96"><path fill="none" d="M0 0h24v24H0z"/><path d="M12 12H6" fill="none" stroke="#121212" stroke-linecap="round" stroke-linejoin="round" stroke-width="1.5"/></svg><svg width="24" height="24" id="icon-phone" y="120"><path fill="none" d="M0 0h24v24H0z"/><path d="M8.3 5a2.5 2.5 0 01.459.045 2.688 2.688 0 011.311.555 1.081 1.081 0 01.381.683l.349 2.245a1.12 1.12 0 01-.151.784 2.75 2.75 0 01-1.89 1.238 8.439 8.439 0 005.186 5.191 2.766 2.766 0 011.243-1.9 1.12 1.12 0 01.767-.151l2.24.353a1.12 1.12 0 01.683.386 2.738 2.738 0 01.56 1.31 2.453 2.453 0 01.062.461 2.8 2.8 0 01-2.514 2.8h-.571A11.2 11.2 0 015.5 8.086v-.577A2.8 2.8 0 018.3 5z" fill="#121212"/></svg><svg width="24" height="24" id="icon-pickshop-1" y="144"><path fill="none" d="M0 0h24v24H0z"/><path d="M10.406 4.607l-4.8 4.269a2.4 2.4 0 00-.806 1.795v6.926a2.4 2.4 0 002.4 2.4h9.6a2.4 2.4 0 002.4-2.4V10.67a2.4 2.4 0 00-.806-1.795l-4.8-4.269a2.4 2.4 0 00-3.188.001z" fill="none" stroke="#121212" stroke-linecap="round" stroke-width="1.5"/></svg><svg width="24" height="24" id="icon-pickshop" y="168"><path fill="none" d="M0 0h24v24H0z"/><path d="M10.6 5.531L6.4 9.267a2.1 2.1 0 00-.7 1.57v6.06a2.1 2.1 0 002.1 2.1h8.4a2.1 2.1 0 002.1-2.1v-6.06a2.1 2.1 0 00-.7-1.57l-4.2-3.736a2.1 2.1 0 00-2.8 0z" fill="none" stroke="#121212" stroke-linecap="round" stroke-width="1.5"/></svg><svg width="24" height="24" id="icon-plus" y="192"><path fill="none" d="M0 0h24v24H0z"/><path d="M12 12V6m0 6v6m0-6h6m-6 0H6" fill="none" stroke="#121212" stroke-linecap="round" stroke-linejoin="round" stroke-width="1.5"/></svg><svg width="24" height="24" id="icon-setting" y="216"><g fill="none"><path d="M0 0h24v24H0z"/><g transform="translate(1 1)" stroke="#121212" stroke-linecap="round" stroke-linejoin="round" stroke-miterlimit="10" stroke-width="1.5"><path d="M12.229 3.569l.709.829a1.623 1.623 0 001.36.572l1.086-.091A1.618 1.618 0 0117.1 6.621l-.091 1.086a1.623 1.623 0 00.572 1.36l.852.7a1.612 1.612 0 010 2.458l-.829.709a1.623 1.623 0 00-.572 1.36l.091 1.086a1.618 1.618 0 01-1.716 1.72l-1.086-.091a1.623 1.623 0 00-1.36.572l-.732.852a1.612 1.612 0 01-2.458 0l-.709-.833a1.623 1.623 0 00-1.36-.572l-1.086.091A1.618 1.618 0 014.9 15.407l.091-1.086a1.623 1.623 0 00-.572-1.36l-.85-.732a1.612 1.612 0 010-2.458l.831-.709A1.623 1.623 0 004.969 7.7l-.091-1.084A1.618 1.618 0 016.621 4.9l1.086.091a1.623 1.623 0 001.36-.572l.7-.852a1.612 1.612 0 012.458 0z"/><circle cx="3" cy="3" r="3" transform="translate(8 8)"/></g></g></svg><svg width="24" height="24" id="icon-trash" y="240"><g fill="none"><path d="M0 0h24v24H0z"/><g stroke="#121212" stroke-linecap="round" stroke-linejoin="round" stroke-miterlimit="10" stroke-width="1.5"><path d="M4.5 5.999h15"/><path data-name="path" d="M9.5 6V3.75a.7.7 0 01.625-.75h3.75a.7.7 0 01.625.75V6M10 11.5v6M14 11.5v6"/><path data-name="path" d="M5.5 6h13v13.125A1.914 1.914 0 0116.55 21h-9.1a1.914 1.914 0 01-1.95-1.875z"/></g></g></svg></svg>
