<?xml version="1.0" encoding="utf-8"?>
<!-- Generator: Adobe Illustrator 22.1.0, SVG Export Plug-In . SVG Version: 6.00 Build 0)  -->
<svg version="1.1" id="Layer_1" xmlns="http://www.w3.org/2000/svg" xmlns:xlink="http://www.w3.org/1999/xlink" x="0px" y="0px"
	 viewBox="0 0 26.2 27.4" style="enable-background:new 0 0 26.2 27.4;" xml:space="preserve">
<g id="icon_uncle" transform="translate(4 3)">
	<rect id="사각형_2775" x="5.2" y="11.6" width="2" height="2"/>
	<rect id="사각형_2776" x="5.6" y="12" width="1.2" height="1.2"/>
	<rect id="사각형_2777" x="11.1" y="11.6" width="2" height="2"/>
	<rect id="사각형_2778" x="11.4" y="12" width="1.2" height="1.2"/>
	<g id="그룹_2216">
		<g>
			<g id="그룹_2215" transform="translate(0 1)">
				<g>
					<path id="패스_2389_1_" d="M9.1,16.5c-1,0.1-1.9-0.5-2.2-1.5h1.1c0.6,0.6,1.5,0.6,2.1,0h1.1C11,16,10.1,16.6,9.1,16.5"/>
					<path d="M9.3,16.8c-0.1,0-0.1,0-0.2,0C8,16.8,7,16.2,6.7,15.1l-0.1-0.3h1.6l0.1,0.1c0.5,0.5,1.2,0.5,1.7,0l0.1-0.1h1.6
						l-0.1,0.3C11.2,16.1,10.3,16.8,9.3,16.8z M9.1,16.3l0,0.3L9.1,16.3c0.8,0.1,1.5-0.3,1.8-1h-0.7c-0.6,0.6-1.6,0.6-2.3,0H7.3
						C7.6,15.9,8.3,16.3,9.1,16.3z"/>
				</g>
				<g>
					<path id="패스_2390_1_" d="M9.1,21.1c-0.4,0-0.8-0.1-1.2-0.3l-4-2c-1.3-0.6-2-1.9-2-3.3v-0.6l-0.3-0.3H1.1
						c-1.5,0-2.6-1.2-2.6-2.6v-0.8c0-1.4,1.1-2.6,2.6-2.6L1.3,8C1.1,7.6,1,7.2,1,6.8V4.2C1,1,3.6-1.6,6.8-1.6h4.6
						c3.2,0,5.8,2.6,5.8,5.8v2.6c0,0.4-0.1,0.9-0.3,1.3l0.3,0.5c1.4,0,2.6,1.2,2.6,2.6V12c0,1.5-1.2,2.6-2.6,2.6h-0.4l-0.3,0.3v0.5
						c0,1.4-0.8,2.7-2,3.3l-1.8,0.9l-2.2,1.1C9.9,21,9.5,21.1,9.1,21.1L9.1,21.1z M2.9,9.7v5.8c0,1,0.6,1.9,1.5,2.4l4,2
						c0.4,0.2,1,0.2,1.4,0l4.1-2.1c0.9-0.4,1.4-1.4,1.4-2.3V9.7L15,9.4c-0.6,0.1-1.3-0.1-1.8-0.4l-2-1.3c-1.2-0.8-2.8-0.8-4.1,0
						l-2,1.3C4.6,9.3,3.9,9.5,3.3,9.4L2.9,9.7z M16.4,9.9v3.4l0.3,0.3h0.4c0.9,0,1.6-0.7,1.6-1.6v-0.8c0-0.9-0.7-1.6-1.6-1.6h-0.4
						L16.4,9.9z M1.1,9.5c-0.9,0-1.6,0.7-1.6,1.6V12c0,0.9,0.7,1.6,1.6,1.6h0.4l0.3-0.3V9.9L1.5,9.5L1.1,9.5z M9.1,3.2
						c-1.3,0-2.7,0.3-3.8,1L2.2,5.9L2.1,6.1v0.6c0,0.9,0.7,1.6,1.6,1.6c0.3,0,0.6-0.1,0.9-0.3l2-1.3c1.6-1.1,3.7-1.1,5.2,0l2,1.3
						c0.7,0.5,1.7,0.3,2.2-0.4c0.2-0.3,0.3-0.6,0.3-0.9V6.1L16,5.9l-3.1-1.7C11.8,3.5,10.4,3.2,9.1,3.2 M6.8-0.6
						c-2.6,0-4.7,2.1-4.7,4.7l0.5,0.3l2.2-1.2c2.7-1.5,6-1.5,8.7,0l2.2,1.2l0.5-0.3v0c0-2.6-2.1-4.7-4.7-4.7L6.8-0.6z"/>
					<path d="M9.1,21.3c-0.4,0-0.9-0.1-1.3-0.3l-4-2c-1.3-0.7-2.2-2-2.2-3.5V15l-0.2-0.2H1.1c-1.6,0-2.9-1.3-2.9-2.9v-0.8
						c0-1.5,1.2-2.8,2.7-2.9L1,8C0.9,7.6,0.8,7.2,0.8,6.8V4.2c0-3.3,2.7-6,6-6h4.6c3.3,0,6,2.7,6,6v2.6c0,0.4-0.1,0.9-0.3,1.2
						l0.1,0.2c1.5,0.1,2.7,1.4,2.7,2.9V12c0,1.6-1.3,2.9-2.9,2.9h-0.3L16.6,15v0.4c0,1.5-0.8,2.9-2.2,3.5L10.4,21
						C10,21.2,9.6,21.3,9.1,21.3L9.1,21.3C9.1,21.3,9.1,21.3,9.1,21.3z M6.8-1.4c-3,0-5.5,2.5-5.5,5.5v2.6c0,0.4,0.1,0.8,0.3,1.1
						L1.6,8L1.2,8.7l-0.1,0c-1.3,0-2.3,1.1-2.3,2.4V12c0,1.3,1.1,2.4,2.4,2.4h0.5l0.5,0.5v0.7c0,1.3,0.7,2.5,1.9,3.1l4,2
						c0.3,0.2,0.7,0.2,1.1,0.2c0,0,0,0,0,0h0c0.4,0,0.7-0.1,1.1-0.3l4.1-2.1c1.2-0.6,1.9-1.8,1.9-3.1v-0.6l0.5-0.5h0.5
						c1.3,0,2.4-1.1,2.4-2.4v-0.8c0-1.3-1-2.4-2.3-2.4l-0.1,0L16.6,8l0.1-0.1C16.9,7.6,17,7.2,17,6.8V4.2c0-3-2.5-5.5-5.5-5.5H6.8z
						 M9.1,20.3c-0.3,0-0.6-0.1-0.8-0.2l-4-2c-1-0.5-1.6-1.5-1.6-2.6V9.6l0.5-0.5l0.1,0c0.6,0.1,1.2,0,1.7-0.4l2-1.3
						c1.3-0.9,3-0.9,4.4,0l2,1.3c0.5,0.3,1.1,0.5,1.7,0.4l0.1,0l0.5,0.5v5.9c0,1.1-0.6,2.1-1.6,2.6l-4.1,2.1
						C9.7,20.2,9.4,20.3,9.1,20.3z M3.2,9.8v5.7c0,0.9,0.5,1.7,1.3,2.1l4,2c0.4,0.2,0.8,0.2,1.2,0l4.1-2.1c0.8-0.4,1.3-1.2,1.3-2.1
						V9.8l-0.2-0.2c-0.7,0.1-1.3-0.1-1.9-0.5l-2-1.3c-1.2-0.8-2.6-0.8-3.8,0l-2,1.3C4.7,9.5,4,9.7,3.3,9.6L3.2,9.8z M17.1,13.8h-0.5
						l-0.5-0.5V9.7l0.5-0.5h0.5c1,0,1.8,0.8,1.8,1.8V12C18.9,13,18.1,13.8,17.1,13.8z M16.8,13.3h0.3c0.7,0,1.3-0.6,1.3-1.3v-0.8
						c0-0.7-0.6-1.3-1.3-1.3h-0.3L16.6,10v3.2L16.8,13.3z M1.6,13.8H1.1c-1,0-1.8-0.8-1.8-1.8v-0.8c0-1,0.8-1.8,1.8-1.8l0.5,0
						l0.5,0.5v3.6L1.6,13.8z M1.1,9.8c-0.7,0-1.3,0.6-1.3,1.3V12c0,0.7,0.6,1.3,1.3,1.3h0.3l0.2-0.2V10L1.4,9.8L1.1,9.8z M3.6,8.6
						c-0.5,0-0.9-0.2-1.3-0.5C2,7.7,1.8,7.3,1.8,6.8V6.1L2,5.7l3.1-1.7c1.2-0.7,2.6-1,4-1v0c1.4,0,2.7,0.4,4,1l3.1,1.7l0.2,0.4v0.7
						c0,0.4-0.1,0.7-0.3,1c-0.3,0.4-0.7,0.7-1.2,0.8c-0.5,0.1-1,0-1.4-0.3l-2-1.3c-1.5-1-3.5-1-5,0l-2,1.3C4.4,8.5,4,8.6,3.6,8.6z
						 M2.3,6.2v0.6c0,0.4,0.1,0.7,0.4,0.9C3,8,3.3,8.1,3.6,8.1c0,0,0,0,0,0c0.3,0,0.5-0.1,0.7-0.2l2-1.3c1.7-1.1,3.8-1.1,5.5,0
						l2,1.3c0.3,0.2,0.7,0.3,1,0.2c0.3-0.1,0.6-0.3,0.8-0.6c0.1-0.2,0.2-0.5,0.2-0.7V6.2L15.8,6l-3-1.7c-1.1-0.6-2.4-1-3.7-1v0
						c-1.3,0-2.6,0.3-3.7,1l-3,1.7L2.3,6.2z M2.5,4.8L1.8,4.3l0-0.1c0-2.7,2.2-5,5-5l4.6,0c2.7,0,5,2.2,5,5v0.1l-0.1,0.1l-0.6,0.3
						l-2.4-1.3C10.7,2,7.5,2,4.9,3.5L2.5,4.8z M9.1,1.9c1.5,0,3.1,0.4,4.5,1.2l2.1,1.2l0.2-0.1c-0.1-2.4-2.1-4.4-4.5-4.4l-4.6,0
						C4.4-0.3,2.4,1.6,2.3,4l0.2,0.2L4.6,3C6,2.3,7.6,1.9,9.1,1.9z"/>
				</g>
			</g>
		</g>
	</g>
</g>
</svg>
