<?xml version="1.0" encoding="utf-8"?>
<!-- Generator: Adobe Illustrator 22.1.0, SVG Export Plug-In . SVG Version: 6.00 Build 0)  -->
<svg version="1.1" id="Layer_1" xmlns="http://www.w3.org/2000/svg" xmlns:xlink="http://www.w3.org/1999/xlink" x="0px" y="0px"
	 viewBox="0 0 24 24" style="enable-background:new 0 0 24 24;" xml:space="preserve">
<g id="icon" transform="translate(-3.739 -0.85)">
	<g id="path" transform="translate(-418.761 -3418.685)">
		<path d="M441.5,3442.8h-14c-1.5,0-2.8-1.2-2.8-2.8v-7c0-1.5,1.2-2.8,2.8-2.8h14c1.5,0,2.8,1.2,2.8,2.8v7
			C444.3,3441.5,443,3442.8,441.5,3442.8z M427.5,3431.8c-0.7,0-1.3,0.6-1.3,1.3v7c0,0.7,0.6,1.3,1.3,1.3h14c0.7,0,1.3-0.6,1.3-1.3
			v-7c0-0.7-0.6-1.3-1.3-1.3H427.5z"/>
		<path d="M440.5,3431.5c-0.4,0-0.8-0.3-0.8-0.8v-3.1c0-2.9-2.4-5.3-5.3-5.3c-2.9,0-5.3,2.4-5.3,5.3v2.7c0,0.4-0.3,0.8-0.8,0.8
			s-0.8-0.3-0.8-0.8v-2.7c0-3.7,3-6.8,6.8-6.8c3.7,0,6.8,3,6.8,6.8v3.1C441.3,3431.1,440.9,3431.5,440.5,3431.5z"/>
		<circle id="타원_49" cx="434.5" cy="3435.5" r="1.5"/>
		<path d="M434.5,3438.8c-0.4,0-0.8-0.3-0.8-0.8v-1c0-0.4,0.3-0.8,0.8-0.8s0.8,0.3,0.8,0.8v1
			C435.3,3438.4,434.9,3438.8,434.5,3438.8z"/>
	</g>
</g>
</svg>
