<svg id="ico_LNB_order" xmlns="http://www.w3.org/2000/svg" width="20" height="20" viewBox="0 0 20 20">
  <rect id="area" width="20" height="20" fill="#fff" opacity="0"/>
  <path id="패스_980" data-name="패스 980" d="M101.5,334H94V321h17v4.757a.5.5,0,0,0,1,0V317.5a.5.5,0,0,0-.5-.5h-18a.5.5,0,0,0-.5.5v17a.5.5,0,0,0,.5.5h8a.5.5,0,0,0,0-1ZM94,318h17v2H94Z" transform="translate(-93 -317)" fill="#fff"/>
  <path id="패스_981" data-name="패스 981" d="M112.449,327.534a1.922,1.922,0,0,0-2.66,0l-6.319,6.33a.473.473,0,0,0-.133.266L103,336.462a.471.471,0,0,0,.465.538.385.385,0,0,0,.067-.005l2.328-.333a.466.466,0,0,0,.266-.133l6.318-6.33a1.887,1.887,0,0,0,0-2.665Zm-6.651,8-1.33-1.333,5.653-5.663,1.33,1.332Z" transform="translate(-93 -317)" fill="#fff"/>
  <rect id="사각형_378" data-name="사각형 378" width="2" height="1" transform="translate(4 7)" fill="#fff"/>
  <rect id="사각형_379" data-name="사각형 379" width="8" height="1" transform="translate(7 7)" fill="#fff"/>
  <rect id="사각형_380" data-name="사각형 380" width="2" height="1" transform="translate(4 10)" fill="#fff"/>
  <rect id="사각형_381" data-name="사각형 381" width="8" height="1" transform="translate(7 10)" fill="#fff"/>
  <rect id="사각형_382" data-name="사각형 382" width="2" height="1" transform="translate(4 13)" fill="#fff"/>
  <rect id="사각형_383" data-name="사각형 383" width="4" height="1" transform="translate(7 13)" fill="#fff"/>
</svg>
