<svg xmlns="http://www.w3.org/2000/svg" width="174" height="174" viewBox="0 0 174 174">
  <g id="표시" transform="translate(-288 -455)">
    <circle id="타원_45" data-name="타원 45" cx="87" cy="87" r="87" transform="translate(288 455)" fill="#f0f4f5"/>
    <path id="icons8-error" d="M49.5,3.45a1.973,1.973,0,0,0-1.432,1L.258,87.246A2,2,0,0,0,2,90.235H97.626a2,2,0,0,0,1.743-2.988L51.557,4.446A1.989,1.989,0,0,0,49.5,3.45Zm.311,5.977L94.14,86.25H5.488Zm-2.3,24.84a.63.63,0,0,0-.685.685V63.776a.679.679,0,0,0,.685.747h4.607a.679.679,0,0,0,.685-.747V34.951a.63.63,0,0,0-.685-.685ZM47.075,70.25a.664.664,0,0,0-.374.685v5.229a.63.63,0,0,0,.685.685h4.856a.63.63,0,0,0,.685-.685V70.935a.63.63,0,0,0-.685-.685H47.386A1.04,1.04,0,0,0,47.075,70.25Z" transform="translate(325.196 482.957)" fill="#60737c"/>
  </g>
</svg>
