<svg id="ico_LNB_Product" xmlns="http://www.w3.org/2000/svg" width="20" height="20" viewBox="0 0 20 20">
  <rect id="area" width="20" height="20" fill="#fff" opacity="0"/>
  <path id="product_clothes" d="M76.462,320.1l5.261,5.059L79.391,327.4l-.107-.1-1.693-1.624V334h-9.2v-8.332L66.7,327.3l-.472.454-2-2.194,5.31-5.448a9.251,9.251,0,0,0,6.918-.01M69.389,319a.365.365,0,0,0-.057,0,.4.4,0,0,0-.225.12l-6,6.153a.374.374,0,0,0-.012.516l2.8,3.077a.4.4,0,0,0,.287.135H66.2a.412.412,0,0,0,.283-.111l.912-.877v6.6a.393.393,0,0,0,.4.384h10.4a.392.392,0,0,0,.4-.384v-6.6l.513.492a.41.41,0,0,0,.566.009l.009-.009,3.2-3.075a.374.374,0,0,0,.01-.543l-.01-.009-6-5.768A.408.408,0,0,0,76.6,319a.418.418,0,0,0-.179.041,8.364,8.364,0,0,1-6.848,0,.417.417,0,0,0-.181-.041Z" transform="translate(-63 -317)" fill="#fff"/>
</svg>
