<svg xmlns="http://www.w3.org/2000/svg" width="190" height="26" viewBox="0 0 190 26">
    <defs>
        <style>
            .cls-1{fill:#36c25d}
        </style>
    </defs>
    <g id="_LOGO" transform="translate(-60 -33)">
        <g id="그룹_17">
            <g id="그룹_6">
                <path id="패스_186" d="M210.19 52.269a6.606 6.606 0 1 1 0-13.2 7.03 7.03 0 0 1 4.656 1.746 1.255 1.255 0 0 1 .078 1.824l-.039.039-6.756 6.488a4.313 4.313 0 0 0 4.887-.541 1.385 1.385 0 0 1 1.9.077 1.257 1.257 0 0 1-.08 1.826 7.018 7.018 0 0 1-4.646 1.741zm0-10.618a4.1 4.1 0 0 0-4.182 4.02 3.869 3.869 0 0 0 .33 1.562l5.484-5.266a4.318 4.318 0 0 0-1.632-.316z"/>
                <path id="패스_187" d="M233.554 52.269a6.606 6.606 0 1 1 0-13.2 7.03 7.03 0 0 1 4.656 1.746 1.255 1.255 0 0 1 .078 1.824q-.018.02-.039.039l-6.756 6.488a4.313 4.313 0 0 0 4.887-.541 1.385 1.385 0 0 1 1.9.077 1.257 1.257 0 0 1-.08 1.826 7.018 7.018 0 0 1-4.646 1.741zm0-10.618a4.1 4.1 0 0 0-4.182 4.02 3.869 3.869 0 0 0 .33 1.562l5.484-5.266a4.318 4.318 0 0 0-1.632-.316z"/>
                <path id="패스_190" d="M196.618 52.269a7 7 0 0 1-4.648-1.74 1.256 1.256 0 0 1-.116-1.823 1.385 1.385 0 0 1 1.9-.111l.036.032a4.265 4.265 0 0 0 2.829 1.058q.405 0 .809-.046a1.975 1.975 0 0 0 1.587-.81 1.486 1.486 0 0 0 .107-.373 1.088 1.088 0 0 0-.519-.967 2.268 2.268 0 0 0-.473-.235 7.329 7.329 0 0 0-1.49-.306c-.251-.035-.512-.067-.774-.116a5.814 5.814 0 0 1-3.192-1.45 3.507 3.507 0 0 1-.835-3.646 3.883 3.883 0 0 1 1.379-1.78 5.571 5.571 0 0 1 3.359-.925 7.046 7.046 0 0 1 4.443 1.569 1.257 1.257 0 0 1 .156 1.822 1.384 1.384 0 0 1-1.9.149 4.288 4.288 0 0 0-2.7-.953 3.051 3.051 0 0 0-1.724.394 1.325 1.325 0 0 0-.474.58 1 1 0 0 0 .243 1.009 3.121 3.121 0 0 0 1.724.691c.216.037.441.068.679.1a9.713 9.713 0 0 1 2.076.453 4.982 4.982 0 0 1 1.043.527 3.6 3.6 0 0 1 1.628 3.541 3.775 3.775 0 0 1-.385 1.137 4.528 4.528 0 0 1-3.686 2.161c-.359.035-.721.055-1.082.058z"/>
                <path id="패스_200" d="M218.038 52.271a1.307 1.307 0 0 1-1.359-1.245V36.582a1.365 1.365 0 0 1 2.719 0v14.444a1.307 1.307 0 0 1-1.36 1.245z"/>
                <path id="패스_201" d="M223.531 52.271a1.306 1.306 0 0 1-1.359-1.245V36.582a1.365 1.365 0 0 1 2.719 0v14.444a1.307 1.307 0 0 1-1.36 1.245z"/>
                <path id="패스_202" d="M249.962 41a1.362 1.362 0 0 0-1.641-.961 9.72 9.72 0 0 0-4.845 2.693V40.52a1.361 1.361 0 0 0-2.719 0v10.444a1.361 1.361 0 0 0 2.719 0v-2.927a7.506 7.506 0 0 1 5.484-5.465 1.3 1.3 0 0 0 1-1.575z"/>
            </g>
        </g>
        <g id="그룹_15">
            <path id="패스_241" d="M68.058 53.391a7.748 7.748 0 1 1 .005-15.483 8.244 8.244 0 0 1 5.457 2.046 1.474 1.474 0 0 1 .091 2.141l-.044.044-7.923 7.608a5.062 5.062 0 0 0 5.732-.629 1.623 1.623 0 0 1 2.231 0 1.474 1.474 0 0 1 0 2.143c-.031.03-.063.058-.1.085a8.22 8.22 0 0 1-5.449 2.045zm0-12.454a4.812 4.812 0 0 0-4.907 4.71 4.553 4.553 0 0 0 .389 1.84l6.431-6.176a5.1 5.1 0 0 0-1.913-.374z" class="cls-1"/>
            <path id="패스_242" d="M155.907 53.39a7.753 7.753 0 1 1 0-15.494 8.2 8.2 0 0 1 6.3 2.916c.141.165.269.338.392.513a1.479 1.479 0 0 1-.431 2.1 1.617 1.617 0 0 1-2.188-.414c-.075-.106-.155-.211-.239-.312a5.051 5.051 0 0 0-6.9-.748 4.593 4.593 0 0 0-.779 6.63 5.05 5.05 0 0 0 6.9.748 4.752 4.752 0 0 0 .778-.748c.077-.092.15-.187.219-.284a1.619 1.619 0 0 1 2.192-.4 1.477 1.477 0 0 1 .414 2.1c-.113.16-.234.318-.36.469a8.163 8.163 0 0 1-6.298 2.924z" class="cls-1"/>
            <path id="패스_243" d="M138.983 39.994a8.305 8.305 0 0 0-11.407.231 7.588 7.588 0 0 0-2.244 5.362v11.93a1.58 1.58 0 0 0 3.155 0v-5.79a8.289 8.289 0 0 0 11.313-1.418 7.522 7.522 0 0 0-.814-10.314zM133.4 50.3a4.721 4.721 0 1 1 4.912-4.718A4.823 4.823 0 0 1 133.4 50.3z" class="cls-1"/>
            <path id="패스_244" d="M144.887 53.43a1.545 1.545 0 0 1-1.577-1.514v-12.56a1.58 1.58 0 0 1 3.154 0v12.56a1.547 1.547 0 0 1-1.577 1.514z" class="cls-1"/>
            <path id="패스_245" d="M166.478 53.43a1.547 1.547 0 0 1-1.577-1.514v-12.56a1.578 1.578 0 0 1 3.154-.006v12.566a1.547 1.547 0 0 1-1.577 1.514z" class="cls-1"/>
            <path id="패스_246" d="M179.593 53.448a1.6 1.6 0 0 1-1.115-.443l-6.559-6.3a1.474 1.474 0 0 1 0-2.143 1.625 1.625 0 0 1 2.231 0l6.558 6.3a1.472 1.472 0 0 1 0 2.142 1.61 1.61 0 0 1-1.117.444z" class="cls-1"/>
            <path id="패스_247" d="M146.9 34.939A2.02 2.02 0 1 1 144.883 33a1.98 1.98 0 0 1 2.019 1.939z" class="cls-1"/>
            <path id="패스_248" d="M115.6 47.187a1.61 1.61 0 0 1-1.116-.444l-6.558-6.3a1.474 1.474 0 0 1-.039-2.143 1.624 1.624 0 0 1 2.231-.038l.039.038 6.558 6.3a1.473 1.473 0 0 1 0 2.143 1.611 1.611 0 0 1-1.114.443z" class="cls-1"/>
            <path id="패스_249" d="M166.478 53.468a1.547 1.547 0 0 1-1.578-1.514 1.486 1.486 0 0 1 .462-1.072l13.117-12.6a1.625 1.625 0 0 1 2.231 0 1.474 1.474 0 0 1 0 2.143l-13.117 12.6a1.6 1.6 0 0 1-1.115.443z" class="cls-1"/>
            <path id="패스_250" d="M108.979 53.468a1.547 1.547 0 0 1-1.579-1.513 1.483 1.483 0 0 1 .463-1.073l13.116-12.6a1.623 1.623 0 0 1 2.23.044 1.471 1.471 0 0 1 0 2.1l-13.116 12.6a1.607 1.607 0 0 1-1.114.442z" class="cls-1"/>
            <path id="패스_251" d="M99.557 53.391a8.225 8.225 0 0 1-5.453-2.04 1.473 1.473 0 0 1-.018-2.142 1.625 1.625 0 0 1 2.152-.086 5 5 0 0 0 3.319 1.24 9.376 9.376 0 0 0 .947-.054 2.316 2.316 0 0 0 1.861-.945 1.732 1.732 0 0 0 .128-.438 1.278 1.278 0 0 0-.611-1.134 2.621 2.621 0 0 0-.553-.276 8.572 8.572 0 0 0-1.748-.359c-.295-.04-.6-.082-.914-.135a6.811 6.811 0 0 1-3.742-1.7 4.109 4.109 0 0 1-.98-4.273 4.55 4.55 0 0 1 1.617-2.088 6.529 6.529 0 0 1 3.938-1.086 8.263 8.263 0 0 1 5.213 1.836 1.474 1.474 0 0 1 .215 2.131 1.621 1.621 0 0 1-2.22.207l-.034-.028A5.031 5.031 0 0 0 99.5 40.9a3.579 3.579 0 0 0-2.021.462 1.558 1.558 0 0 0-.556.68 1.174 1.174 0 0 0 .285 1.185 3.663 3.663 0 0 0 2.021.81c.254.044.518.08.8.119a11.355 11.355 0 0 1 2.435.53 5.911 5.911 0 0 1 1.224.619 4.218 4.218 0 0 1 1.909 4.153 4.407 4.407 0 0 1-.452 1.333 5.306 5.306 0 0 1-4.324 2.532c-.421.046-.843.067-1.264.068z" class="cls-1"/>
            <path id="패스_252" d="M90.663 37.841a1.547 1.547 0 0 0-1.577 1.514v.145a8.293 8.293 0 0 0-11.317 1.414 7.548 7.548 0 0 0 1.473 10.87 8.337 8.337 0 0 0 9.844 0v.135a1.578 1.578 0 0 0 3.154 0V39.356a1.546 1.546 0 0 0-1.576-1.515zm-6.49 12.518a4.722 4.722 0 1 1 4.912-4.72 4.824 4.824 0 0 1-4.911 4.718z" class="cls-1"/>
        </g>
    </g>
</svg>
