<svg xmlns="http://www.w3.org/2000/svg" width="17.087" height="15.002" viewBox="0 0 17.087 15.002">
  <path id="ico_prev_2" d="M11351.293,24934.705l-6-6a1,1,0,0,1-.294-.707,1.019,1.019,0,0,1,.294-.707l6-6a.994.994,0,0,1,1.415,0,1,1,0,0,1,0,1.414l-5.295,5.289,5.295,5.293a1,1,0,0,1-.71,1.711A.987.987,0,0,1,11351.293,24934.705Zm-8,0-6-6a1.006,1.006,0,0,1-.294-.707,1.023,1.023,0,0,1,.294-.707l6-6a.993.993,0,0,1,1.414,0,1,1,0,0,1,0,1.414l-5.294,5.289,5.294,5.293a1,1,0,0,1-.709,1.711A.985.985,0,0,1,11343.3,24934.705Z" transform="translate(-11336.5 -24920.5)" fill="#666" stroke="rgba(0,0,0,0)" stroke-miterlimit="10" stroke-width="1"/>
</svg>
