<svg xmlns="http://www.w3.org/2000/svg" width="24" height="24" viewBox="0 0 24 24">
    <path fill="none" d="M0 0H24V24H0z" opacity="0.2"/>
    <path fill="#36c25d" d="M888 571a5.979 5.979 0 0 0-1.474.19V564a1 1 0 0 0-1-1H882v-.667a3.017 3.017 0 1 0-6 0V563h-3.526a1 1 0 0 0-1 1v10.879l-1.445 5.883A1 1 0 0 0 871 582h13.686A6 6 0 1 0 888 571zm-10-8.667c0-.723.458-1.333 1-1.333s1 .61 1 1.333V563h-2zm-4.556 12.9a.957.957 0 0 0 .03-.238V565H876v1a1 1 0 0 0 2 0v-1h2v1a1 1 0 0 0 2 0v-1h2.526v7.114a5.981 5.981 0 0 0-1.717 7.886h-10.534zm17.263 3.055a1 1 0 1 1-1.414 1.414L888 578.414l-1.293 1.293a1 1 0 0 1-1.414-1.414l1.293-1.293-1.293-1.293a1 1 0 0 1 1.414-1.414l1.293 1.293 1.293-1.293a1 1 0 0 1 1.414 1.414L889.414 577z" transform="translate(-870 -559)"/>
</svg>
