<svg xmlns="http://www.w3.org/2000/svg" width="60" height="60" viewBox="0 0 60 60">
  <g id="그룹_2158" data-name="그룹 2158" transform="translate(-851 -314)">
    <circle id="타원_50" data-name="타원 50" cx="30" cy="30" r="30" transform="translate(851 314)" fill="#36c25d"/>
    <g id="ico" transform="translate(672 211)">
      <rect id="AREA_24x24" data-name="AREA 24x24" width="24" height="24" transform="translate(197 121)" fill="none" opacity="0.2"/>
      <path id="패스_1027" data-name="패스 1027" d="M214.614,124a1.38,1.38,0,0,1,.979.375,1.4,1.4,0,0,1,0,1.97l-11.1,11.122-2.287.327.328-2.3,11.1-11.122a1.378,1.378,0,0,1,.978-.374m0-2a3.376,3.376,0,0,0-2.394.961l-11.373,11.393a.85.85,0,0,0-.24.48l-.6,4.2a.848.848,0,0,0,.839.968.966.966,0,0,0,.119-.008l4.191-.6a.842.842,0,0,0,.478-.24l11.373-11.394A3.36,3.36,0,0,0,214.614,122Z" transform="translate(-1)" fill="#fff"/>
      <rect id="사각형_416" data-name="사각형 416" width="22" height="2" rx="1" transform="translate(198 142)" fill="#fff"/>
    </g>
  </g>
</svg>
