<svg xmlns="http://www.w3.org/2000/svg" id="ico_editsreen_24x24_" width="20" height="23.001" viewBox="0 0 20 23.001">
    <defs>
        <style>
            .cls-1{fill:#fff}
        </style>
    </defs>
    <path id="패스_1059" d="M957.282 564.084a2.076 2.076 0 0 0-1.448-.584h-1.166a1 1 0 0 0 0 2l1.229.026a.387.387 0 0 1 .1.26V582.2a.344.344 0 0 1-.166.3l-15.731-.027a.383.383 0 0 1-.1-.257V565.8a.344.344 0 0 1 .166-.3h1.166a1 1 0 0 0 0-2h-1.145a2.136 2.136 0 0 0-1.471.585 2.415 2.415 0 0 0-.716 1.7v16.448a2.4 2.4 0 0 0 .717 1.682 2.043 2.043 0 0 0 1.408.584h15.687a2.057 2.057 0 0 0 1.472-.585 2.415 2.415 0 0 0 .716-1.7v-16.445a2.4 2.4 0 0 0-.718-1.685z" class="cls-1" transform="translate(-938 -561.5)"/>
    <path id="패스_1060" d="M945 566.5h6a1 1 0 0 0 1-1v-3a1 1 0 0 0-1-1h-6a1 1 0 0 0-1 1v3a1 1 0 0 0 1 1zm1-3h4v1h-4z" class="cls-1" transform="translate(-938 -561.5)"/>
    <path id="패스_1061" d="M944 572h8a1 1 0 0 0 0-2h-8a1 1 0 0 0 0 2z" class="cls-1" transform="translate(-938 -561.5)"/>
    <path id="패스_1062" d="M944 576h8a1 1 0 0 0 0-2h-8a1 1 0 0 0 0 2z" class="cls-1" transform="translate(-938 -561.5)"/>
    <path id="패스_1063" d="M944 580h8a1 1 0 0 0 0-2h-8a1 1 0 0 0 0 2z" class="cls-1" transform="translate(-938 -561.5)"/>
</svg>
