<svg xmlns="http://www.w3.org/2000/svg" width="24" height="24" viewBox="0 0 24 24">
    <path fill="none" d="M0 0H24V24H0z" opacity="0.2"/>
    <path d="M1029 559a12 12 0 1 0 12 12 12 12 0 0 0-12-12zm0 22a10 10 0 1 1 10-10 10.011 10.011 0 0 1-10 10z" transform="translate(-1017 -559)"/>
    <path d="M1033.707 566.293a1 1 0 0 0-1.414 0l-3.293 3.293-3.293-3.293a1 1 0 0 0-1.414 1.414l3.293 3.293-3.293 3.293a1 1 0 1 0 1.414 1.414l3.293-3.293 3.293 3.293a1 1 0 0 0 1.414-1.414l-3.293-3.293 3.293-3.293a1 1 0 0 0 0-1.414z" transform="translate(-1017 -559)"/>
</svg>
