<svg id="ico_notice" xmlns="http://www.w3.org/2000/svg" width="21" height="18" viewBox="0 0 21 18">
  <path id="패스_1020" data-name="패스 1020" d="M311.156,274.155a1.468,1.468,0,0,0-1.551.149l-5.942,4.509H301.5a1.518,1.518,0,0,0-1.5,1.531v5.312a1.519,1.519,0,0,0,1.5,1.532h2.163L309.6,291.7a1.47,1.47,0,0,0,1.552.149,1.524,1.524,0,0,0,.844-1.377V275.532A1.524,1.524,0,0,0,311.156,274.155ZM302,285.188v-4.375h1.84a1.488,1.488,0,0,0,.16-.027v4.428a1.483,1.483,0,0,0-.16-.026Zm8,4.3-4-3.035v-6.9l4-3.035Z" transform="translate(-300 -274)"/>
  <path id="패스_1021" data-name="패스 1021" d="M317.4,277.506a1,1,0,0,0-.8,1.832,3.993,3.993,0,0,1,0,7.324,1,1,0,1,0,.8,1.832,5.993,5.993,0,0,0,0-10.988Z" transform="translate(-300 -274)"/>
  <path id="패스_1022" data-name="패스 1022" d="M317,283a3,3,0,0,0-2.249-2.9,1,1,0,0,0-.5,1.936.99.99,0,0,1,0,1.922,1,1,0,0,0,.251,1.968.987.987,0,0,0,.251-.032A3,3,0,0,0,317,283Z" transform="translate(-300 -274)"/>
</svg>
