<svg xmlns="http://www.w3.org/2000/svg" width="60" height="60" viewBox="0 0 60 60">
  <g id="그룹_2152" data-name="그룹 2152" transform="translate(-851 -314)">
    <circle id="타원_50" data-name="타원 50" cx="30" cy="30" r="30" transform="translate(851 314)" fill="#efefef"/>
    <g id="ico" transform="translate(644 212)">
      <rect id="AREA_24x24" data-name="AREA 24x24" width="24" height="24" transform="translate(225 120)" fill="none" opacity="0.2"/>
      <path id="패스_1028" data-name="패스 1028" d="M244,143H228a2,2,0,0,1-2-2V125a2,2,0,0,1,2-2h8a1,1,0,0,1,0,2h-8v16h16v-9a1,1,0,0,1,2,0v9A2,2,0,0,1,244,143Z" fill="#999"/>
      <path id="패스_1029" data-name="패스 1029" d="M236,135a1,1,0,0,1-.707-.293l-4-4a1,1,0,0,1,1.414-1.414l3.262,3.261,10.294-11.23a1,1,0,1,1,1.474,1.351l-11,12a1,1,0,0,1-.716.324Z" fill="#999"/>
    </g>
  </g>
</svg>
