<svg xmlns="http://www.w3.org/2000/svg" xmlns:xlink="http://www.w3.org/1999/xlink" width="130" height="55.39" viewBox="0 0 130 55.39">
  <defs>
    <clipPath id="clip-path">
      <path id="패스_37" data-name="패스 37" d="M0-76.694H130V-21.3H0Z" transform="translate(0 76.694)" fill="none"/>
    </clipPath>
  </defs>
  <g id="logo" transform="translate(1 76.694)">
    <g id="그룹_14" data-name="그룹 14" transform="translate(-1 -76.694)" clip-path="url(#clip-path)">
      <g id="그룹_2" data-name="그룹 2" transform="translate(0 25.699)">
        <path id="패스_25" data-name="패스 25" d="M-3.263-1.277A5.17,5.17,0,0,0-8.426,3.887,5.149,5.149,0,0,0-8.019,5.9L-1.25-.87a5.157,5.157,0,0,0-2.014-.407m0,13.648a8.493,8.493,0,0,1-8.484-8.484A8.494,8.494,0,0,1-3.263-4.6,8.46,8.46,0,0,1,2.486-2.353a1.661,1.661,0,0,1,.535,1.187A1.665,1.665,0,0,1,2.535.042L-5.8,8.38a5.131,5.131,0,0,0,2.541.67A5.147,5.147,0,0,0,.229,7.691a1.66,1.66,0,0,1,2.247,2.445,8.459,8.459,0,0,1-5.739,2.235" transform="translate(11.747 4.598)"/>
      </g>
      <g id="그룹_3" data-name="그룹 3" transform="translate(51.005 25.627)">
        <path id="패스_26" data-name="패스 26" d="M-6.4-.187a1.662,1.662,0,0,0-2.347,0l-5.729,5.729L-20.2-.187a1.663,1.663,0,0,0-2.349,0,1.661,1.661,0,0,0,0,2.349l5.729,5.729-5.729,5.728a1.66,1.66,0,0,0,0,2.348,1.658,1.658,0,0,0,1.174.487,1.66,1.66,0,0,0,1.174-.487l13.8-13.8a1.662,1.662,0,0,0,0-2.349" transform="translate(23.039 0.672)"/>
      </g>
      <g id="그룹_4" data-name="그룹 4" transform="translate(36.12 25.657)">
        <path id="패스_27" data-name="패스 27" d="M-2.414-6.543A8.458,8.458,0,0,1-8.152-8.779a1.66,1.66,0,0,1-.1-2.346,1.661,1.661,0,0,1,2.346-.1A5.152,5.152,0,0,0-2.414-9.864a9.891,9.891,0,0,0,1-.059A2.412,2.412,0,0,0,.543-10.961a2,2,0,0,0,.134-.48,1.416,1.416,0,0,0-.641-1.243,2.76,2.76,0,0,0-.584-.3,8.7,8.7,0,0,0-1.839-.392c-.311-.045-.631-.092-.958-.15a7.052,7.052,0,0,1-3.94-1.864,4.639,4.639,0,0,1-1.031-4.683,4.963,4.963,0,0,1,1.7-2.287,6.675,6.675,0,0,1,4.146-1.191,8.493,8.493,0,0,1,5.487,2.013A1.661,1.661,0,0,1,3.21-19.2a1.661,1.661,0,0,1-2.341.192,5.163,5.163,0,0,0-3.338-1.223,3.648,3.648,0,0,0-2.128.506,1.7,1.7,0,0,0-.585.745,1.323,1.323,0,0,0,.3,1.3,3.776,3.776,0,0,0,2.128.888c.268.048.545.089.839.13a11.523,11.523,0,0,1,2.564.582,6.072,6.072,0,0,1,1.287.677,4.7,4.7,0,0,1,2.01,4.551A5,5,0,0,1,3.47-9.393,5.554,5.554,0,0,1-1.08-6.619a13.315,13.315,0,0,1-1.334.076" transform="translate(8.689 23.554)"/>
      </g>
      <g id="그룹_5" data-name="그룹 5" transform="translate(94.918 25.685)">
        <path id="패스_28" data-name="패스 28" d="M-3.266-6.532a8.5,8.5,0,0,1-8.49-8.491,8.5,8.5,0,0,1,8.49-8.491,8.451,8.451,0,0,1,5.877,2.363,8.52,8.52,0,0,1,.761.833c.145.181.284.371.413.563a1.661,1.661,0,0,1-.454,2.3,1.66,1.66,0,0,1-2.3-.452c-.079-.117-.162-.232-.251-.342a5.176,5.176,0,0,0-.465-.509,5.147,5.147,0,0,0-3.579-1.438,5.175,5.175,0,0,0-5.17,5.17,5.176,5.176,0,0,0,5.17,5.17A5.153,5.153,0,0,0,.778-11.8c.08-.1.157-.206.229-.312a1.663,1.663,0,0,1,2.308-.437,1.662,1.662,0,0,1,.437,2.307c-.12.176-.248.349-.381.514A8.45,8.45,0,0,1-3.266-6.532" transform="translate(11.756 23.514)" fill="#36c25d"/>
      </g>
      <g id="그룹_6" data-name="그룹 6" transform="translate(89.426 25.626)">
        <path id="패스_29" data-name="패스 29" d="M-.638-6.571A1.66,1.66,0,0,1-2.3-8.232V-22a1.66,1.66,0,0,1,1.66-1.66A1.66,1.66,0,0,1,1.023-22V-8.232A1.66,1.66,0,0,1-.638-6.571" transform="translate(2.298 23.656)" fill="#36c25d"/>
      </g>
      <g id="그룹_7" data-name="그룹 7" transform="translate(88.963 20.271)">
        <path id="패스_30" data-name="패스 30" d="M-1.634-.817A2.124,2.124,0,0,1-3.759,1.307,2.124,2.124,0,0,1-5.882-.817,2.124,2.124,0,0,1-3.759-2.941,2.124,2.124,0,0,1-1.634-.817" transform="translate(5.882 2.941)" fill="#36c25d"/>
      </g>
      <g id="그룹_8" data-name="그룹 8" transform="translate(128.941 25.74)">
        <path id="패스_31" data-name="패스 31" d="M0,0A1.657,1.657,0,0,1,.573.373,1.657,1.657,0,0,0,0,0" fill="#36c25d"/>
      </g>
      <g id="그룹_9" data-name="그룹 9" transform="translate(70.298 25.682)">
        <path id="패스_32" data-name="패스 32" d="M-3.266-1.277A5.147,5.147,0,0,1,.312.161,5.127,5.127,0,0,1,1.9,3.893a5.177,5.177,0,0,1-5.17,5.17,5.176,5.176,0,0,1-5.17-5.17,5.176,5.176,0,0,1,5.17-5.17M32.479,15.082a4.258,4.258,0,0,1-1.66-.335V21.79H-8.435V10.622a8.446,8.446,0,0,0,5.17,1.762,8.5,8.5,0,0,0,8.49-8.491A8.417,8.417,0,0,0,2.611-2.235,8.449,8.449,0,0,0-3.266-4.6a8.5,8.5,0,0,0-8.49,8.49V23.45a1.66,1.66,0,0,0,1.66,1.66H32.479a1.66,1.66,0,0,0,1.66-1.66v-8.7a4.259,4.259,0,0,1-1.66.335" transform="translate(11.756 4.597)" fill="#36c25d"/>
      </g>
      <g id="그룹_10" data-name="그룹 10" transform="translate(70.298 -0.001)">
        <path id="패스_33" data-name="패스 33" d="M-11.423-4.149H-25.062v-.644a6.829,6.829,0,0,1,6.82-6.822,6.828,6.828,0,0,1,6.819,6.822Zm23.786,23.4,5.729-5.728a1.661,1.661,0,0,0-2.349-2.349L4.772,22.149V-2.488a1.66,1.66,0,0,0-1.66-1.66H-8.1v-.644A10.153,10.153,0,0,0-18.242-14.935,10.153,10.153,0,0,0-28.382-4.792v.644H-39.464a1.66,1.66,0,0,0-1.66,1.66V11.178A11.761,11.761,0,0,1-37.8,8.728V-.828h9.421V2.713a1.66,1.66,0,0,0,1.66,1.66,1.66,1.66,0,0,0,1.66-1.66V-.828h13.638V2.713a1.66,1.66,0,0,0,1.66,1.66A1.661,1.661,0,0,0-8.1,2.713V-.828H1.452V26.116c0,.007,0,.013,0,.02a1.659,1.659,0,0,0,2.833,1.2L10.015,21.6l5.728,5.729a1.661,1.661,0,1,0,2.349-2.348Z" transform="translate(41.124 14.935)" fill="#36c25d"/>
      </g>
      <g id="그룹_11" data-name="그룹 11" transform="translate(112.874 41.091)">
        <path id="패스_34" data-name="패스 34" d="M0,0H0Z" transform="translate(0 0.002)" fill="#36c25d"/>
      </g>
      <g id="그룹_12" data-name="그룹 12" transform="translate(127.292 25.627)">
        <path id="패스_35" data-name="패스 35" d="M-.634-.043a1.659,1.659,0,0,0-1.65.259A1.657,1.657,0,0,1-1.237-.156a1.668,1.668,0,0,1,.6.113" transform="translate(2.284 0.156)" fill="#36c25d"/>
      </g>
      <g id="그룹_13" data-name="그룹 13" transform="translate(16.955 25.626)">
        <path id="패스_36" data-name="패스 36" d="M-3.266-5.276a5.175,5.175,0,0,1-5.17-5.17,5.176,5.176,0,0,1,5.17-5.17A5.146,5.146,0,0,1,.313-14.178,5.128,5.128,0,0,1,1.9-10.446a5.176,5.176,0,0,1-5.17,5.17M3.565-19a1.66,1.66,0,0,0-1.66,1.66v.155a8.442,8.442,0,0,0-5.17-1.757,8.5,8.5,0,0,0-8.49,8.491,8.5,8.5,0,0,0,8.49,8.491A8.444,8.444,0,0,0,1.9-3.718v.147a1.66,1.66,0,0,0,1.66,1.66,1.66,1.66,0,0,0,1.66-1.66V-17.335A1.66,1.66,0,0,0,3.565-19" transform="translate(11.756 18.995)"/>
      </g>
    </g>
  </g>
</svg>
