<svg xmlns="http://www.w3.org/2000/svg" xmlns:xlink="http://www.w3.org/1999/xlink" width="57" height="18" viewBox="0 0 57 18">
  <defs>
    <clipPath id="clip-path">
      <rect width="57" height="18" fill="none"/>
    </clipPath>
  </defs>
  <g id="logo" clip-path="url(#clip-path)">
    <g id="logo-2" data-name="logo" transform="translate(-172.06 -13.34)">
      <path id="path" d="M27.009-5.116H14.741V-7.557H16.68v-4.495H14.945v-2.441H26.7v2.441H24.825v4.495h2.184ZM30.97,3.04H28.153V-1.455H16.68V-3.936H30.97Zm0-7.668H28.153V-14.96H30.97ZM22.008-7.557v-4.495H19.5v4.495Z" transform="translate(198.09 28.3)" fill="#36c25d"/>
      <path id="path-2" data-name="path" d="M4.7.431Q3.658-.833,2.728-1.944T1-4.095Q.8-4.36.618-4.615a4.661,4.661,0,0,1-.324-.54,7.1,7.1,0,0,1-.71,1.06q-.815,1.04-1.932,2.3T-4.531.716L-6.5-1.3Q-5.263-2.729-4.1-4.146T-2-6.867A4.209,4.209,0,0,0-1.4-8.09,5.076,5.076,0,0,0-1.189-9.6v-2.1h-4.22v-2.487H5.81V-11.7H1.736v2.1A5.076,5.076,0,0,0,1.945-8.09,4.54,4.54,0,0,0,2.53-6.867q.9,1.325,1.891,2.65T6.6-1.485ZM10.636,3.04H7.753v-18h2.883Z" transform="translate(198.039 28.3)" fill="#36c25d"/>
      <path id="path-3" data-name="path" d="M-10.03,3.04h-2.9v-18h2.9Zm-5.312-7.155a4.8,4.8,0,0,1-.388,1.947,4.314,4.314,0,0,1-1.1,1.519,5.03,5.03,0,0,1-1.722.978A6.877,6.877,0,0,1-20.8.675,6.877,6.877,0,0,1-23.048.329,5.03,5.03,0,0,1-24.769-.65a4.314,4.314,0,0,1-1.1-1.519,4.8,4.8,0,0,1-.388-1.947V-9.9a4.8,4.8,0,0,1,.388-1.947,4.314,4.314,0,0,1,1.1-1.519,5.03,5.03,0,0,1,1.722-.978,6.877,6.877,0,0,1,2.247-.347,6.877,6.877,0,0,1,2.247.347,5.03,5.03,0,0,1,1.722.978,4.314,4.314,0,0,1,1.1,1.519A4.8,4.8,0,0,1-15.342-9.9Zm-8.02-.306A2.689,2.689,0,0,0-22.712-2.5a2.5,2.5,0,0,0,1.911.693A2.5,2.5,0,0,0-18.891-2.5a2.689,2.689,0,0,0,.651-1.916V-9.6a2.689,2.689,0,0,0-.651-1.916,2.5,2.5,0,0,0-1.911-.693,2.5,2.5,0,0,0-1.911.693A2.689,2.689,0,0,0-23.363-9.6Z" transform="translate(198.32 28.3)" fill="#36c25d"/>
    </g>
  </g>
</svg>
