<svg id="레이어_1" data-name="레이어 1" xmlns="http://www.w3.org/2000/svg" viewBox="0 0 41.31 41.45"><defs><style>.cls-1{fill:#36c25d;}.cls-2{isolation:isolate;}</style></defs><title>ico-prd-sample</title><path class="cls-1" d="M12.94,42.45H12.8L2.9,41a1,1,0,0,1-.85-.85L.64,30.27a1,1,0,0,1,.28-.84l24-24a1,1,0,0,1,1.42,0l2.19,2.2L27.15,9,25.67,7.51l-23,23,1.24,8.66,8.66,1.24,23-23-1.49-1.48,1.42-1.41,2.19,2.19a1,1,0,0,1,0,1.41l-24,24A1,1,0,0,1,12.94,42.45Z" transform="translate(-0.63 -1)"/><g class="cls-2"><path class="cls-1" d="M16.9,31.12c-1.06,1.06-2.4,1.42-3.46.36l1.27-1.28a.8.8,0,0,0,1.2-.07c.35-.35.43-.7.07-1.06-.92-.92-2.9,2.05-4.66.28-.92-.91-.71-2.26.35-3.32s2.4-1.27,3.32-.35L13.72,27a.78.78,0,0,0-1.06.07.61.61,0,0,0-.07.92c.85.85,3-2,4.59-.35A2.38,2.38,0,0,1,16.9,31.12Z" transform="translate(-0.63 -1)"/><path class="cls-1" d="M21.64,24.55,19.8,26.39l.57,1.13-1.28,1.27-3.18-6.72,1.42-1.41L24,23.84l-1.27,1.27ZM18,22.71l1.2,2.47L20.37,24Z" transform="translate(-0.63 -1)"/><path class="cls-1" d="M19.66,18.32l1.41-1.41L26,19l-2.12-4.81,1.42-1.41,4.94,5L29,18.89l-3-3L27.86,20l-1,1-4.1-1.84,3,3-1.2,1.2-4.95-4.95Z" transform="translate(-0.63 -1)"/><path class="cls-1" d="M31.33,13l-.78.78,1.77,1.77-1.21,1.2-4.95-4.95,2-2a2.3,2.3,0,0,1,3.47-.21C32.46,10.48,32.6,11.75,31.33,13Zm-1.06-.78c.49-.49.49-.92.07-1.34A.88.88,0,0,0,29,11l-.63.64,1.27,1.27.64-.64Z" transform="translate(-0.63 -1)"/><path class="cls-1" d="M31.82,6.16l4,4,1.56-1.55.92.92-2.76,2.75L30.62,7.36Z" transform="translate(-0.63 -1)"/><path class="cls-1" d="M38,2,36.13,3.83l1,1,1.63-1.63.92.92L38,5.74,39.1,6.8,40.94,5l1,1-3,3L33.94,4l3-3Z" transform="translate(-0.63 -1)"/></g><circle id="타원_145" data-name="타원 145" class="cls-1" cx="7.72" cy="33.73" r="1.5"/></svg>