<svg xmlns="http://www.w3.org/2000/svg" width="24" height="24" viewBox="0 0 24 24">
    <path fill="none" d="M0 0H24V24H0z" opacity="0.2"/>
    <path d="M1110 567a1 1 0 0 0-1 1v13h-14v-13a1 1 0 0 0-2 0v14a1 1 0 0 0 1 1h16a1 1 0 0 0 1-1v-14a1 1 0 0 0-1-1z" transform="translate(-1090 -559)"/>
    <path d="M1112 563h-5v-3a1 1 0 0 0-1-1h-8a1 1 0 0 0-1 1v3h-5a1 1 0 0 0 0 2h20a1 1 0 0 0 0-2zm-13-2h6v2h-6z" transform="translate(-1090 -559)"/>
    <path d="M1103 577v-6a1 1 0 0 0-2 0v6a1 1 0 0 0 2 0z" transform="translate(-1090 -559)"/>
    <path d="M1099 577v-6a1 1 0 0 0-2 0v6a1 1 0 0 0 2 0z" transform="translate(-1090 -559)"/>
    <path d="M1107 577v-6a1 1 0 0 0-2 0v6a1 1 0 0 0 2 0z" transform="translate(-1090 -559)"/>
</svg>
