<svg xmlns="http://www.w3.org/2000/svg" width="24" height="24" viewBox="0 0 24 24">
    <path fill="none" d="M0 0H24V24H0z" opacity="0.2"/>
    <path d="M990 568h-1.38l-5-3.571A2.957 2.957 0 0 0 984 563a3 3 0 0 0-6 0 2.96 2.96 0 0 0 .379 1.429l-5 3.571H972a3 3 0 0 0-3 3v8a3 3 0 0 0 3 3h18a3 3 0 0 0 3-3v-8a3 3 0 0 0-3-3zm-9-6a1 1 0 1 1-1 1 1 1 0 0 1 1-1zm-1.085 3.789a2.9 2.9 0 0 0 2.17 0L985.18 568h-8.36zM991 579a1 1 0 0 1-1 1h-18a1 1 0 0 1-1-1v-8a1 1 0 0 1 1-1h18a1 1 0 0 1 1 1z" transform="translate(-969 -559)"/>
    <text transform="translate(4 18)" style="isolation:isolate" font-family="Poppins-Bold, Poppins" font-size="6px" font-weight="700">
        <tspan x="0" y="0">SOLD</tspan>
    </text>
</svg>
