<svg id="레이어_1" data-name="레이어 1" xmlns="http://www.w3.org/2000/svg" viewBox="0 0 41.31 41.45"><defs><style>.cls-1{fill:#666;}</style></defs><title>ico-prd-sample-gray</title><path class="cls-1" d="M14,41.62h-.14L4,40.17a1,1,0,0,1-.85-.85L1.73,29.44A1,1,0,0,1,2,28.6l24-24a1,1,0,0,1,1.41,0h0l2.19,2.2L28.24,8.17,26.76,6.68l-23,23L5,38.34l8.66,1.24,23-23L35.17,15.1l1.42-1.41,2.19,2.19a1,1,0,0,1,0,1.41l-24,24A1,1,0,0,1,14,41.62Z" transform="translate(-1.72 -0.17)"/><path class="cls-1" d="M18,30.29c-1.06,1.06-2.4,1.42-3.46.36l1.27-1.28a.8.8,0,0,0,1.13,0A.46.46,0,0,0,17,29.3c.35-.35.43-.7.07-1.06-.92-.92-2.9,2.05-4.66.28-.92-.91-.71-2.26.35-3.32s2.4-1.27,3.32-.35l-1.27,1.32a.78.78,0,0,0-1.06.07.61.61,0,0,0-.13.85l.06.07c.85.85,3-2,4.59-.35a2.37,2.37,0,0,1-.14,3.36Z" transform="translate(-1.72 -0.17)"/><path class="cls-1" d="M22.73,23.72l-1.84,1.84.57,1.13L20.18,28,17,21.24l1.42-1.41L25.09,23l-1.27,1.27Zm-3.64-1.84,1.2,2.47,1.17-1.18Z" transform="translate(-1.72 -0.17)"/><path class="cls-1" d="M20.75,17.49l1.41-1.41,4.93,2.09L25,13.36,26.39,12l4.94,5-1.24,1.11-3-3L29,19.17l-1,1-4.1-1.84,3,3-1.2,1.2-4.95-5Z" transform="translate(-1.72 -0.17)"/><path class="cls-1" d="M32.42,12.17l-.78.78,1.77,1.77-1.21,1.2-5-4.95,2-2a2.3,2.3,0,0,1,3.22-.43l.25.22C33.55,9.65,33.69,10.92,32.42,12.17Zm-1.06-.78c.49-.49.49-.92.07-1.34a.87.87,0,0,0-1.24,0l-.1.12-.63.64,1.27,1.27.64-.64Z" transform="translate(-1.72 -0.17)"/><path class="cls-1" d="M32.91,5.33l4,4,1.56-1.55.92.92-2.76,2.75L31.71,6.53Z" transform="translate(-1.72 -0.17)"/><path class="cls-1" d="M39.09,1.17,37.22,3l1,1,1.63-1.63.92.92L39.09,4.91,40.19,6,42,4.17l1,1-3,3-5-5,3-3Z" transform="translate(-1.72 -0.17)"/><circle id="타원_145" data-name="타원 145" class="cls-1" cx="7.71" cy="33.73" r="1.5"/></svg>