<svg xmlns="http://www.w3.org/2000/svg" id="ico_cancel_24x24_" width="24" height="24" viewBox="0 0 24 24">
    <defs>
        <style>
            .cls-2{fill:#666}
        </style>
    </defs>
    <path id="ico_area" fill="none" d="M0 0H24V24H0z" opacity="0.2"/>
    <path id="패스_1049" d="M1029 559a12 12 0 1 0 12 12 12 12 0 0 0-12-12zm0 22a10 10 0 1 1 10-10 10.011 10.011 0 0 1-10 10z" class="cls-2" transform="translate(-1017 -559)"/>
    <path id="패스_1050" d="M1033.707 566.293a1 1 0 0 0-1.414 0l-3.293 3.293-3.293-3.293a1 1 0 0 0-1.414 1.414l3.293 3.293-3.293 3.293a1 1 0 1 0 1.414 1.414l3.293-3.293 3.293 3.293a1 1 0 0 0 1.414-1.414l-3.293-3.293 3.293-3.293a1 1 0 0 0 0-1.414z" class="cls-2" transform="translate(-1017 -559)"/>
</svg>
