<svg id="ico_images" xmlns="http://www.w3.org/2000/svg" width="22" height="18" viewBox="0 0 22 18">
  <path id="패스_1065" data-name="패스 1065" d="M800,377H786a1,1,0,0,0,0,2h14v11a1,1,0,0,0,2,0V379A2,2,0,0,0,800,377Z" transform="translate(-780 -377)" fill="#999"/>
  <path id="패스_1066" data-name="패스 1066" d="M797,381H781a1,1,0,0,0-1,1v12a1,1,0,0,0,1,1h16a1,1,0,0,0,1-1V382A1,1,0,0,0,797,381Zm-15,2h14v9.02l-2.374-2.349a.53.53,0,0,0-.653-.071l-2.092,1.312a.531.531,0,0,1-.638-.056l-4.092-3.719a.529.529,0,0,0-.786.085L782,392.02Z" transform="translate(-780 -377)" fill="#999"/>
  <circle id="타원_75" data-name="타원 75" cx="1.5" cy="1.5" r="1.5" transform="translate(10 7.5)" fill="#999"/>
</svg>
