<svg width="16" height="16" viewBox="0 0 16 16" fill="none" xmlns="http://www.w3.org/2000/svg">
<path fill-rule="evenodd" clip-rule="evenodd" d="M9.16801 1.17889C8.52993 -0.059629 6.75913 -0.0596291 6.12105 1.17889C5.73764 1.92309 4.87266 2.28138 4.07532 2.02626C2.74836 1.60169 1.49622 2.85383 1.92079 4.18078C2.17591 4.97813 1.81763 5.84311 1.07342 6.22652C-0.165098 6.8646 -0.165098 8.6354 1.07342 9.27348C1.81763 9.65689 2.17591 10.5219 1.92079 11.3192C1.49622 12.6462 2.74836 13.8983 4.07532 13.4737C4.87266 13.2186 5.73764 13.5769 6.12105 14.3211C6.75913 15.5596 8.52993 15.5596 9.16801 14.3211C9.55143 13.5769 10.4164 13.2186 11.2137 13.4737C12.5407 13.8983 13.7928 12.6462 13.3683 11.3192C13.1132 10.5219 13.4714 9.65689 14.2156 9.27348C15.4542 8.6354 15.4542 6.8646 14.2156 6.22652C13.4714 5.84311 13.1132 4.97813 13.3683 4.18078C13.7928 2.85383 12.5407 1.60169 11.2137 2.02626C10.4164 2.28138 9.55143 1.92309 9.16801 1.17889ZM7.64453 10.9261C9.39862 10.9261 10.8206 9.50409 10.8206 7.75C10.8206 5.99591 9.39862 4.57394 7.64453 4.57394C5.89044 4.57394 4.46847 5.99591 4.46847 7.75C4.46847 9.50409 5.89044 10.9261 7.64453 10.9261Z" fill="#666666"/>
</svg>
