<svg xmlns="http://www.w3.org/2000/svg" width="24" height="24" viewBox="0 0 24 24">
  <g id="icon-setting" transform="translate(-423 -4600)">
    <rect id="base" width="24" height="24" transform="translate(423 4600)" fill="none"/>
    <g id="icon" transform="translate(424 4601)">
      <path id="path" d="M9.229.569l.709.829a1.623,1.623,0,0,0,1.36.572l1.086-.091A1.618,1.618,0,0,1,14.1,3.621l-.091,1.086a1.623,1.623,0,0,0,.572,1.36l.852.7a1.612,1.612,0,0,1,0,2.458l-.829.709a1.623,1.623,0,0,0-.572,1.36l.091,1.086A1.618,1.618,0,0,1,12.407,14.1l-1.086-.091a1.623,1.623,0,0,0-1.36.572l-.732.852a1.612,1.612,0,0,1-2.458,0L6.062,14.6a1.623,1.623,0,0,0-1.36-.572l-1.086.091A1.618,1.618,0,0,1,1.9,12.407l.091-1.086a1.623,1.623,0,0,0-.572-1.36L.569,9.229a1.612,1.612,0,0,1,0-2.458L1.4,6.062A1.623,1.623,0,0,0,1.969,4.7L1.878,3.616A1.618,1.618,0,0,1,3.621,1.9l1.086.091a1.623,1.623,0,0,0,1.36-.572l.7-.852a1.612,1.612,0,0,1,2.458,0Z" transform="translate(3 3)" fill="none" stroke="#121212" stroke-linecap="round" stroke-linejoin="round" stroke-miterlimit="10" stroke-width="1.5"/>
      <circle id="oval" cx="3" cy="3" r="3" transform="translate(8 8)" fill="none" stroke="#121212" stroke-linecap="round" stroke-linejoin="round" stroke-miterlimit="10" stroke-width="1.5"/>
    </g>
  </g>
</svg>
