<svg xmlns="http://www.w3.org/2000/svg" width="24" height="24" viewBox="0 0 24 24">
  <g id="icon-phone" transform="translate(-423 -4600)">
    <rect id="base" width="24" height="24" transform="translate(423 4600)" fill="none"/>
    <g id="icon" transform="translate(427.759 4604.259)">
      <path id="path" d="M2.8,0a2.5,2.5,0,0,1,.459.045A2.688,2.688,0,0,1,4.57.6a1.081,1.081,0,0,1,.381.683L5.3,3.528a1.12,1.12,0,0,1-.151.784A2.75,2.75,0,0,1,3.259,5.55a8.439,8.439,0,0,0,5.186,5.191,2.766,2.766,0,0,1,1.243-1.9,1.12,1.12,0,0,1,.767-.151l2.24.353a1.12,1.12,0,0,1,.683.386,2.738,2.738,0,0,1,.56,1.31A2.453,2.453,0,0,1,14,11.2,2.8,2.8,0,0,1,11.486,14h-.571A11.2,11.2,0,0,1,0,3.086Q0,2.943,0,2.8V2.509A2.8,2.8,0,0,1,2.8,0Z" transform="translate(0.741 0.741)" fill="#121212"/>
    </g>
  </g>
</svg>
