<?xml version="1.0" encoding="utf-8"?>
<!-- Generator: Adobe Illustrator 22.1.0, SVG Export Plug-In . SVG Version: 6.00 Build 0)  -->
<svg version="1.1" id="Layer_1" xmlns:svgjs="http://svgjs.com/svgjs"
	 xmlns="http://www.w3.org/2000/svg" xmlns:xlink="http://www.w3.org/1999/xlink" x="0px" y="0px" viewBox="0 0 512 512"
	 style="enable-background:new 0 0 512 512;" xml:space="preserve">
<style type="text/css">
	.st0{fill:#FFFFFF;}
</style>
<g>
	<g id="exclmation_mark">
		<g>
			<path class="st0" d="M256,42.7C138.4,42.7,42.7,138.4,42.7,256S138.4,469.3,256,469.3S469.3,373.6,469.3,256S373.6,42.7,256,42.7
				z M256,426.7c-94.1,0-170.7-76.6-170.7-170.7S161.9,85.3,256,85.3S426.7,161.9,426.7,256S350.1,426.7,256,426.7z"/>
			<path class="st0" d="M256,149.3c-11.8,0-21.3,9.6-21.3,21.3v106.7c0,11.8,9.5,21.3,21.3,21.3c11.8,0,21.3-9.6,21.3-21.3V170.7
				C277.3,158.9,267.8,149.3,256,149.3z"/>
			<path class="st0" d="M256,320c-5.5,0-11.1,2.3-15.1,6.2c-3.9,4.1-6.2,9.6-6.2,15.1c0,5.5,2.3,11.1,6.2,15.1
				c8.1,7.9,22.2,7.9,30.3,0c3.8-4.1,6.2-9.6,6.2-15.1s-2.3-11.1-6.2-15.1C267.1,322.3,261.5,320,256,320L256,320z"/>
		</g>
	</g>
</g>
</svg>
