<svg xmlns="http://www.w3.org/2000/svg" width="24" height="24" viewBox="0 0 24 24"><g fill="none"><path d="M0 0h24v24H0z"/><g stroke="#121212" stroke-linecap="round" stroke-linejoin="round" stroke-miterlimit="10" stroke-width="1.5" transform="translate(1 1)"><path d="M12.577 1.467l.909 1.063a2.083 2.083 0 0 0 1.745.733l1.393-.117a2.075 2.075 0 0 1 2.2 2.237l-.117 1.393a2.083 2.083 0 0 0 .73 1.745l1.093.9a2.068 2.068 0 0 1 0 3.153l-1.063.909a2.083 2.083 0 0 0-.73 1.748l.117 1.393a2.075 2.075 0 0 1-2.2 2.2l-1.393-.117a2.083 2.083 0 0 0-1.745.733l-.939 1.097a2.068 2.068 0 0 1-3.153 0l-.909-1.063a2.083 2.083 0 0 0-1.746-.737l-1.393.117a2.075 2.075 0 0 1-2.2-2.2l.117-1.393a2.083 2.083 0 0 0-.733-1.745l-1.093-.939a2.068 2.068 0 0 1 0-3.153l1.063-.909a2.083 2.083 0 0 0 .733-1.745l-.117-1.395a2.075 2.075 0 0 1 2.237-2.2l1.393.117a2.083 2.083 0 0 0 1.745-.733l.902-1.092a2.068 2.068 0 0 1 3.153 0z"/><circle cx="2.93" cy="2.93" r="2.93" transform="translate(8.067 8.066)"/></g></g></svg>