<svg xmlns="http://www.w3.org/2000/svg" width="24" height="24" viewBox="0 0 24 24">
  <g id="icon-trash" transform="translate(-723 -3122)">
    <rect id="base" width="24" height="24" transform="translate(723 3122)" fill="none"/>
    <g id="icon" transform="translate(-109.4 -68.765)">
      <path id="path" d="M0,.533H15" transform="translate(836.9 3196.231)" fill="none" stroke="#121212" stroke-linecap="round" stroke-linejoin="round" stroke-miterlimit="10" stroke-width="1.5"/>
      <path id="path-2" data-name="path" d="M0,3V.75A.7.7,0,0,1,.625,0h3.75A.7.7,0,0,1,5,.75V3" transform="translate(841.9 3193.765)" fill="none" stroke="#121212" stroke-linecap="round" stroke-linejoin="round" stroke-miterlimit="10" stroke-width="1.5"/>
      <path id="path-3" data-name="path" d="M.533,0V6" transform="translate(841.867 3202.265)" fill="none" stroke="#121212" stroke-linecap="round" stroke-linejoin="round" stroke-miterlimit="10" stroke-width="1.5"/>
      <path id="path-4" data-name="path" d="M.533,0V6" transform="translate(845.867 3202.265)" fill="none" stroke="#121212" stroke-linecap="round" stroke-linejoin="round" stroke-miterlimit="10" stroke-width="1.5"/>
      <path id="path-5" data-name="path" d="M0,0H13V13.125A1.914,1.914,0,0,1,11.05,15H1.95A1.914,1.914,0,0,1,0,13.125Z" transform="translate(837.9 3196.765)" fill="none" stroke="#121212" stroke-linecap="round" stroke-linejoin="round" stroke-miterlimit="10" stroke-width="1.5"/>
    </g>
  </g>
</svg>
