<svg xmlns="http://www.w3.org/2000/svg" width="24" height="24" viewBox="0 0 24 24">
  <g id="icon-filter" transform="translate(-791 -3122)">
    <rect id="base" width="24" height="24" transform="translate(791 3122)" fill="none"/>
    <g id="icon" transform="translate(5 32)">
      <path id="path" d="M30280.209,586.123a1.547,1.547,0,0,0,1.541.023l1.439-.777a1.648,1.648,0,0,0,.766-1.363v-4.893l4.3-4.1a1.606,1.606,0,0,0,.334-1.7,1.5,1.5,0,0,0-1.436-.974h-10.914a1.494,1.494,0,0,0-1.432.974,1.616,1.616,0,0,0,.328,1.7l4.3,4.1v5.671A1.636,1.636,0,0,0,30280.209,586.123Z" transform="translate(-29483.701 2522.661)" fill="none" stroke="#121212" stroke-width="1.5" fill-rule="evenodd"/>
    </g>
  </g>
</svg>
