<svg xmlns="http://www.w3.org/2000/svg" width="24" height="24" viewBox="0 0 24 24"><path fill="none" d="M0 0h24v24H0z"/><g fill="#121212"><path d="M14.477 18.435a.534.534 0 0 0-.744.162c0 .005-.36.447-1.6.447-1.193 0-1.568-.411-1.6-.445a.546.546 0 0 0-.912.6c.06.1.64.938 2.508.938s2.448-.842 2.508-.938a.556.556 0 0 0-.16-.764zm-4.659-5.39a.546.546 0 0 0-.545-.545H8.182a.545.545 0 1 0 0 1.091h1.091a.546.546 0 0 0 .545-.546zm6-.545h-1.091a.545.545 0 1 0 0 1.091h1.091a.545.545 0 0 0 0-1.091z"/><path d="M6.994 21.355a.475.475 0 0 0 .1.009h.011c.02 0 .034-.008.052-.008a6.751 6.751 0 0 0 4.709 2.053 7.725 7.725 0 0 0 5-2.077c.968-.172 5.59-1.057 6.978-2.446a.545.545 0 0 0 0-.772c-.816-.816-1.557-3.266-1.887-6.241a19.893 19.893 0 0 1-.134-2.1C21.823 4.747 17.264.5 11.869.5a9.494 9.494 0 0 0-9.682 9.273c0 .206-.013.438-.027.678a42.16 42.16 0 0 0-.024.508c-.019.249-.04.508-.069.78-.322 3.038-1.069 5.541-1.9 6.374a.547.547 0 0 0 0 .772c1.456 1.464 6.281 2.37 6.827 2.47zm.29-1.462a10.579 10.579 0 0 1-1.988-4.114.545.545 0 0 0-.817-.332.3.3 0 0 1-.116.052c-.289 0-.818-.828-.818-2.182a2.262 2.262 0 0 0-.207-.876.873.873 0 0 1-.094-.315v-.009c.118-.052.245-.111.379-.176 1.635-.782 4.221-2.411 4.922-5.108a18.278 18.278 0 0 0 3.528 2.527 23.851 23.851 0 0 0 8.256 3.033c.106.014.21.02.315.03a4.18 4.18 0 0 1 .079.758c0 1.432-.447 2.181-.687 2.181a.3.3 0 0 1-.116-.052.54.54 0 0 0-.493-.043.546.546 0 0 0-.325.374 9.631 9.631 0 0 1-2.831 4.76 6.715 6.715 0 0 1-4.412 1.917 5.971 5.971 0 0 1-4.575-2.425z"/></g></svg>