<svg xmlns="http://www.w3.org/2000/svg" width="24" height="24" viewBox="0 0 24 24"><path fill="none" d="M0 0h24v24H0z"/><g fill="#121212"><path d="M14.578 18.79a.561.561 0 0 0-.779.17c0 .006-.377.469-1.673.469-1.25 0-1.642-.431-1.672-.466a.571.571 0 0 0-.955.626c.063.1.671.983 2.627.983s2.565-.882 2.627-.983a.583.583 0 0 0-.175-.799z"/><path d="M1.731 13.046c.016.174.032.354.032.538 0 1.955.854 3.429 1.988 3.429h.027C5.012 21.095 8.386 24 11.986 24c3.506 0 6.95-3.094 8.209-7.287h.026c1.134 0 1.988-1.474 1.988-3.429 0-.179.015-.381.03-.586.015-.235.031-.474.032-.7a2.8 2.8 0 0 0-.047-.59 3.97 3.97 0 0 0 .018-1.105 6.305 6.305 0 0 1-.033-.592 9.581 9.581 0 0 0-9.655-9.714c-6.353 0-10.791 3.994-10.791 9.714 0 .21-.014.448-.028.694a7.553 7.553 0 0 0 .026 1.545 3.3 3.3 0 0 0-.03 1.096zm19.374-.425c-.016.233-.032.462-.032.665 0 1.418-.551 2.286-.852 2.286a.308.308 0 0 1-.12-.056.567.567 0 0 0-.851.349c-.981 3.986-4.1 6.993-7.264 6.993-3.253 0-6.307-2.816-7.263-6.695a.568.568 0 0 0-.339-.392.55.55 0 0 0-.212-.042.566.566 0 0 0-.3.087.291.291 0 0 1-.12.055c-.3 0-.852-.867-.852-2.286 0-.221-.018-.434-.037-.641-.011-.134-.023-.257-.027-.371h1.769a.568.568 0 0 0 .568-.557 14.5 14.5 0 0 1 .492-3.675 1.176 1.176 0 0 1 .159-.337c.112 0 .25.013.407.024.307.022.676.047 1.065.047 1.866 0 2.8-.642 3.227-1.454a11.78 11.78 0 0 0 7.2 2.514 12.54 12.54 0 0 0 1.151 3.131.567.567 0 0 0 .5.306h1.739z"/><path d="M9.763 13.142a.571.571 0 0 0-.571-.571H8.049a.572.572 0 0 0 0 1.143h1.143a.571.571 0 0 0 .571-.572zm6.285-.571h-1.143a.572.572 0 1 0 0 1.143h1.143a.572.572 0 0 0 0-1.143z"/></g></svg>