<?xml version="1.0" encoding="utf-8"?>
<!-- Generator: Adobe Illustrator 22.1.0, SVG Export Plug-In . SVG Version: 6.00 Build 0)  -->
<svg version="1.1" id="Layer_1" xmlns="http://www.w3.org/2000/svg" xmlns:xlink="http://www.w3.org/1999/xlink" x="0px" y="0px"
	 viewBox="0 0 24 24" style="enable-background:new 0 0 24 24;" xml:space="preserve">
<style type="text/css">
	.st0{fill:#121212;}
</style>
<g id="icon" transform="translate(-3.739 -0.85)">
	<g id="path" transform="translate(-23.889 -26)">
		<path class="st0" d="M48.4,49.6c-0.4,0-0.8-0.3-0.8-0.8v-2.4c0-0.4,0.3-0.8,0.8-0.8s0.8,0.3,0.8,0.8v2.4
			C49.2,49.3,48.8,49.6,48.4,49.6z"/>
		<path class="st0" d="M30.6,49.6c-0.4,0-0.8-0.3-0.8-0.8v-2.4c-0.1-2.9,2.2-5.4,5.2-5.5l8.9,0c0.4,0,0.8,0.3,0.8,0.8
			s-0.3,0.8-0.8,0.8h-8.9c-2.1,0.1-3.8,1.9-3.7,4l0,2.4C31.4,49.3,31,49.6,30.6,49.6z"/>
		<path class="st0" d="M39.5,39.2c-3.1,0-5.5-2.5-5.5-5.5s2.5-5.5,5.5-5.5s5.5,2.5,5.5,5.5S42.6,39.2,39.5,39.2z M39.5,29.6
			c-2.2,0-4,1.8-4,4c0,2.2,1.8,4,4,4s4-1.8,4-4C43.5,31.4,41.7,29.6,39.5,29.6z"/>
		<path d="M44.4,47.2c-0.2,0-0.3-0.1-0.5-0.2l-2.1-1.8c-0.3-0.3-0.3-0.7-0.1-1.1c0.3-0.3,0.7-0.3,1.1-0.1l1.6,1.4l3.4-3.6
			c0.3-0.3,0.8-0.3,1.1,0c0.3,0.3,0.3,0.8,0,1.1L45,47C44.8,47.1,44.6,47.2,44.4,47.2z"/>
	</g>
</g>
</svg>
