<?xml version="1.0" encoding="utf-8"?>
<!-- Generator: Adobe Illustrator 22.1.0, SVG Export Plug-In . SVG Version: 6.00 Build 0)  -->
<svg version="1.1" id="Layer_1" xmlns="http://www.w3.org/2000/svg" xmlns:xlink="http://www.w3.org/1999/xlink" x="0px" y="0px"
	 viewBox="0 0 23.2 24.1" style="enable-background:new 0 0 23.2 24.1;" xml:space="preserve">
<style type="text/css">
	.st0{fill:none;}
	.st1{fill:#FFFFFF;}
</style>
<g id="icon" transform="translate(-3.498 0.232)">
	<g id="그룹_2195" transform="translate(-91.75 -315.125)">
		<g id="사각형_331" transform="translate(102.202 325.891) rotate(-45)">
			<path class="st0" d="M2.2,0L2.2,0c1.2,0,2.2,1,2.2,2.2v14.2c0,1.2-1,2.2-2.2,2.2l0,0c-1.2,0-2.2-1-2.2-2.2V2.2C0,1,1,0,2.2,0z"/>
			<path d="M0.6,17.9C0.2,17.5,0,17,0,16.4L0,2.2c0-0.6,0.2-1.1,0.6-1.5C1.1,0.2,1.6,0,2.2,0l0,0c0,0,0,0,0,0s0,0,0,0
				c1.2,0,2.2,1,2.2,2.2l0,14.2c0,0.6-0.2,1.1-0.6,1.5s-1,0.6-1.5,0.6C1.6,18.6,1,18.3,0.6,17.9z M2.7,1.7C2.5,1.6,2.4,1.5,2.2,1.5
				h0C2,1.5,1.8,1.6,1.7,1.7C1.6,1.8,1.5,2,1.5,2.2l0,14.2c0,0.2,0.1,0.4,0.2,0.5l0,0C1.8,17,2,17.1,2.2,17.1c0.2,0,0.4-0.1,0.5-0.2
				s0.2-0.3,0.2-0.5l0-14.2C2.9,2,2.8,1.8,2.7,1.7z"/>
		</g>
		<g>
			<path id="패스_2333_1_" class="st1" d="M106,318.8c0.4-0.3,0.7-0.1,0.7,0.4l-0.2,2.4c0,0.6,0.2,1.1,0.6,1.5l1.8,1.5
				c0.4,0.3,0.3,0.7-0.2,0.8l-2.3,0.6c-0.5,0.2-1,0.6-1.2,1.1l-0.9,2.3c-0.2,0.5-0.5,0.5-0.8,0.1l-1.2-2c-0.3-0.5-0.8-0.8-1.4-0.8
				l-2.3,0c-0.5,0-0.6-0.3-0.3-0.7l1.5-1.9c0.3-0.5,0.5-1,0.4-1.6l-0.6-2.3c-0.1-0.5,0.1-0.7,0.6-0.6l2.2,0.8
				c0.5,0.2,1.1,0.1,1.6-0.2L106,318.8z"/>
			<path d="M103.9,330.5c-0.4,0-0.8-0.2-1-0.7l-1.2-2c-0.2-0.2-0.5-0.4-0.8-0.4l-2.3,0c-0.5,0-0.9-0.2-1.1-0.7
				c-0.2-0.4-0.1-0.9,0.2-1.3l1.5-1.9c0.2-0.3,0.3-0.6,0.2-1l-0.6-2.3c-0.1-0.5,0-1,0.3-1.3c0.3-0.3,0.8-0.4,1.3-0.2l2.2,0.8
				c0.3,0.1,0.6,0,0.9-0.1l2-1.4c0.6-0.4,1.1-0.2,1.3-0.1s0.6,0.4,0.5,1.2l-0.2,2.4c0,0.3,0.1,0.6,0.4,0.9l1.8,1.4
				c0.4,0.3,0.6,0.8,0.5,1.2c-0.1,0.4-0.4,0.8-1,0.9l-2.3,0.6c-0.3,0.1-0.6,0.4-0.7,0.7l-0.8,2.2
				C104.8,330.1,104.5,330.4,103.9,330.5C104,330.5,103.9,330.5,103.9,330.5z M99.2,325.9l1.7,0c0.8,0.1,1.5,0.5,2,1.1l0.9,1.5
				l0.6-1.7c0.3-0.8,0.9-1.3,1.7-1.6l1.8-0.5l-1.4-1.1c-0.6-0.6-0.9-1.3-0.9-2.1l0.1-1.8l-1.4,1c-0.7,0.4-1.5,0.5-2.3,0.3l-1.7-0.7
				l0.5,1.8c0.2,0.8,0,1.6-0.5,2.2L99.2,325.9z"/>
		</g>
		<circle id="타원_55" cx="110.8" cy="318.8" r="1"/>
		<circle id="타원_58" cx="101.2" cy="332.9" r="1"/>
		<circle id="타원_56" cx="109.8" cy="321.9" r="0.5"/>
		<path id="패스_2334" d="M99.7,329.4c0.3,0,0.5,0.2,0.5,0.5c0,0.3-0.2,0.5-0.5,0.5s-0.5-0.2-0.5-0.5
			C99.2,329.6,99.4,329.4,99.7,329.4z"/>
	</g>
</g>
</svg>
